<mxfile host="app.diagrams.net" agent="Mozilla/5.0 (Windows NT 10.0; Win64; x64) AppleWebKit/537.36 (KHTML, like Gecko) Chrome/131.0.0.0 Safari/537.36" version="24.8.4">
  <diagram name="第 1 页" id="ME-t9XABibju69oW2RBo">
    <mxGraphModel dx="2963" dy="1580" grid="1" gridSize="10" guides="1" tooltips="1" connect="1" arrows="1" fold="1" page="1" pageScale="1" pageWidth="827" pageHeight="1169" math="0" shadow="0">
      <root>
        <mxCell id="0" />
        <mxCell id="1" parent="0" />
        <mxCell id="QvKiuwDlhmeOhOTdiMVR-1" style="edgeStyle=orthogonalEdgeStyle;rounded=0;orthogonalLoop=1;jettySize=auto;html=1;entryX=0.75;entryY=1;entryDx=0;entryDy=0;" parent="1" source="QvKiuwDlhmeOhOTdiMVR-2" target="QvKiuwDlhmeOhOTdiMVR-37" edge="1">
          <mxGeometry relative="1" as="geometry">
            <mxPoint x="740.2962962962961" y="266.0740740740739" as="targetPoint" />
          </mxGeometry>
        </mxCell>
        <mxCell id="QvKiuwDlhmeOhOTdiMVR-2" value="P&lt;div&gt;C&lt;/div&gt;" style="html=1;dashed=0;whiteSpace=wrap;fillColor=#f9f7ed;strokeColor=#36393d;" parent="1" vertex="1">
          <mxGeometry x="75" y="310" width="30" height="60" as="geometry" />
        </mxCell>
        <mxCell id="QvKiuwDlhmeOhOTdiMVR-3" value="" style="triangle;whiteSpace=wrap;html=1;dashed=0;direction=south;rotation=-180;" parent="1" vertex="1">
          <mxGeometry x="85" y="360" width="10" height="10" as="geometry" />
        </mxCell>
        <mxCell id="QvKiuwDlhmeOhOTdiMVR-4" style="edgeStyle=orthogonalEdgeStyle;rounded=0;orthogonalLoop=1;jettySize=auto;html=1;exitX=0.5;exitY=1;exitDx=0;exitDy=0;startArrow=classic;startFill=1;endArrow=none;endFill=0;fillColor=#f8cecc;strokeColor=#b85450;" parent="1" source="QvKiuwDlhmeOhOTdiMVR-5" edge="1">
          <mxGeometry relative="1" as="geometry">
            <mxPoint x="90" y="410" as="targetPoint" />
          </mxGeometry>
        </mxCell>
        <mxCell id="QvKiuwDlhmeOhOTdiMVR-5" value="" style="shape=ellipse;html=1;dashed=0;whiteSpace=wrap;aspect=fixed;perimeter=ellipsePerimeter;" parent="1" vertex="1">
          <mxGeometry x="85" y="370" width="10" height="10" as="geometry" />
        </mxCell>
        <mxCell id="QvKiuwDlhmeOhOTdiMVR-6" style="edgeStyle=orthogonalEdgeStyle;rounded=0;orthogonalLoop=1;jettySize=auto;html=1;endArrow=none;endFill=0;startArrow=classic;startFill=1;entryX=0;entryY=0.5;entryDx=0;entryDy=0;" parent="1" source="QvKiuwDlhmeOhOTdiMVR-7" edge="1" target="QvKiuwDlhmeOhOTdiMVR-2">
          <mxGeometry relative="1" as="geometry">
            <mxPoint x="55" y="339" as="targetPoint" />
            <Array as="points">
              <mxPoint x="55" y="489" />
              <mxPoint x="55" y="340" />
            </Array>
          </mxGeometry>
        </mxCell>
        <mxCell id="QvKiuwDlhmeOhOTdiMVR-7" value="Instr&lt;div&gt;Mem&lt;/div&gt;" style="html=1;dashed=0;whiteSpace=wrap;fillColor=#d5e8d4;strokeColor=#82b366;" parent="1" vertex="1">
          <mxGeometry x="160" y="370" width="100" height="150" as="geometry" />
        </mxCell>
        <mxCell id="QvKiuwDlhmeOhOTdiMVR-8" value="" style="group;rotation=90;" parent="1" vertex="1" connectable="0">
          <mxGeometry x="150" y="400" width="10" height="20" as="geometry" />
        </mxCell>
        <mxCell id="QvKiuwDlhmeOhOTdiMVR-9" value="" style="triangle;whiteSpace=wrap;html=1;dashed=0;direction=south;rotation=-90;" parent="QvKiuwDlhmeOhOTdiMVR-8" vertex="1">
          <mxGeometry x="10" y="5" width="10" height="10" as="geometry" />
        </mxCell>
        <mxCell id="QvKiuwDlhmeOhOTdiMVR-10" style="edgeStyle=orthogonalEdgeStyle;rounded=0;orthogonalLoop=1;jettySize=auto;html=1;startArrow=classic;startFill=1;endArrow=none;endFill=0;fillColor=#f8cecc;strokeColor=#b85450;" parent="QvKiuwDlhmeOhOTdiMVR-8" source="QvKiuwDlhmeOhOTdiMVR-11" edge="1">
          <mxGeometry relative="1" as="geometry">
            <mxPoint x="-134" y="10" as="targetPoint" />
          </mxGeometry>
        </mxCell>
        <mxCell id="QvKiuwDlhmeOhOTdiMVR-11" value="" style="shape=ellipse;html=1;dashed=0;whiteSpace=wrap;aspect=fixed;perimeter=ellipsePerimeter;rotation=90;" parent="QvKiuwDlhmeOhOTdiMVR-8" vertex="1">
          <mxGeometry y="5" width="10" height="10" as="geometry" />
        </mxCell>
        <mxCell id="QvKiuwDlhmeOhOTdiMVR-12" value="Reg&lt;div&gt;File&lt;/div&gt;" style="html=1;dashed=0;whiteSpace=wrap;fillColor=#dae8fc;strokeColor=#6c8ebf;" parent="1" vertex="1">
          <mxGeometry x="490" y="370" width="100" height="150" as="geometry" />
        </mxCell>
        <mxCell id="QvKiuwDlhmeOhOTdiMVR-13" value="" style="triangle;whiteSpace=wrap;html=1;dashed=0;direction=south;rotation=-180;" parent="1" vertex="1">
          <mxGeometry x="535" y="510" width="10" height="10" as="geometry" />
        </mxCell>
        <mxCell id="QvKiuwDlhmeOhOTdiMVR-14" style="edgeStyle=orthogonalEdgeStyle;rounded=0;orthogonalLoop=1;jettySize=auto;html=1;exitX=0.5;exitY=1;exitDx=0;exitDy=0;startArrow=classic;startFill=1;endArrow=none;endFill=0;fillColor=#f8cecc;strokeColor=#b85450;" parent="1" source="QvKiuwDlhmeOhOTdiMVR-15" edge="1">
          <mxGeometry relative="1" as="geometry">
            <mxPoint x="96.85714285714289" y="408.8571428571431" as="targetPoint" />
          </mxGeometry>
        </mxCell>
        <mxCell id="QvKiuwDlhmeOhOTdiMVR-15" value="" style="shape=ellipse;html=1;dashed=0;whiteSpace=wrap;aspect=fixed;perimeter=ellipsePerimeter;rotation=0;" parent="1" vertex="1">
          <mxGeometry x="535" y="520" width="10" height="10" as="geometry" />
        </mxCell>
        <mxCell id="QvKiuwDlhmeOhOTdiMVR-16" style="edgeStyle=orthogonalEdgeStyle;rounded=0;orthogonalLoop=1;jettySize=auto;html=1;exitX=0;exitY=0.25;exitDx=0;exitDy=0;startArrow=classic;startFill=1;endArrow=none;endFill=0;" parent="1" source="QvKiuwDlhmeOhOTdiMVR-19" edge="1">
          <mxGeometry relative="1" as="geometry">
            <mxPoint x="335.16666666666674" y="430.8333333333335" as="targetPoint" />
          </mxGeometry>
        </mxCell>
        <mxCell id="QvKiuwDlhmeOhOTdiMVR-17" style="edgeStyle=orthogonalEdgeStyle;rounded=0;orthogonalLoop=1;jettySize=auto;html=1;exitX=0;exitY=0.75;exitDx=0;exitDy=0;startArrow=classic;startFill=1;endArrow=none;endFill=0;" parent="1" source="QvKiuwDlhmeOhOTdiMVR-19" edge="1">
          <mxGeometry relative="1" as="geometry">
            <mxPoint x="422.25" y="657.0833333333335" as="targetPoint" />
          </mxGeometry>
        </mxCell>
        <mxCell id="QvKiuwDlhmeOhOTdiMVR-18" style="edgeStyle=orthogonalEdgeStyle;rounded=0;orthogonalLoop=1;jettySize=auto;html=1;entryX=0.75;entryY=1;entryDx=0;entryDy=0;" parent="1" source="QvKiuwDlhmeOhOTdiMVR-19" target="QvKiuwDlhmeOhOTdiMVR-41" edge="1">
          <mxGeometry relative="1" as="geometry">
            <Array as="points">
              <mxPoint x="634" y="642" />
              <mxPoint x="634" y="132" />
            </Array>
          </mxGeometry>
        </mxCell>
        <mxCell id="QvKiuwDlhmeOhOTdiMVR-19" value="&lt;font style=&quot;font-size: 14px;&quot;&gt;Imm&lt;/font&gt;&lt;div&gt;&lt;font size=&quot;3&quot;&gt;Gen&lt;/font&gt;&lt;/div&gt;" style="html=1;dashed=0;whiteSpace=wrap;fillColor=#bac8d3;strokeColor=#23445d;" parent="1" vertex="1">
          <mxGeometry x="490" y="612" width="100" height="60" as="geometry" />
        </mxCell>
        <mxCell id="QvKiuwDlhmeOhOTdiMVR-20" value="" style="html=1;dashed=0;whiteSpace=wrap;fillColor=#bac8d3;strokeColor=#23445d;" parent="1" vertex="1">
          <mxGeometry x="490" y="706" width="100" height="103" as="geometry" />
        </mxCell>
        <mxCell id="QvKiuwDlhmeOhOTdiMVR-21" value="" style="group" parent="1" vertex="1" connectable="0">
          <mxGeometry x="730" y="338" width="40" height="110" as="geometry" />
        </mxCell>
        <mxCell id="QvKiuwDlhmeOhOTdiMVR-22" style="edgeStyle=orthogonalEdgeStyle;rounded=0;orthogonalLoop=1;jettySize=auto;html=1;exitX=0.25;exitY=1;exitDx=0;exitDy=0;startArrow=classic;startFill=1;endArrow=none;endFill=0;" parent="QvKiuwDlhmeOhOTdiMVR-21" source="QvKiuwDlhmeOhOTdiMVR-24" edge="1">
          <mxGeometry relative="1" as="geometry">
            <mxPoint x="-78" y="-98" as="targetPoint" />
          </mxGeometry>
        </mxCell>
        <mxCell id="QvKiuwDlhmeOhOTdiMVR-23" style="edgeStyle=orthogonalEdgeStyle;rounded=0;orthogonalLoop=1;jettySize=auto;html=1;" parent="QvKiuwDlhmeOhOTdiMVR-21" source="QvKiuwDlhmeOhOTdiMVR-24" edge="1">
          <mxGeometry relative="1" as="geometry">
            <mxPoint x="127.5454545454545" y="55" as="targetPoint" />
          </mxGeometry>
        </mxCell>
        <mxCell id="QvKiuwDlhmeOhOTdiMVR-24" value="" style="shape=trapezoid;perimeter=trapezoidPerimeter;whiteSpace=wrap;html=1;fixedSize=1;size=20;rotation=90;fillColor=#f5f5f5;fontColor=#333333;strokeColor=#666666;" parent="QvKiuwDlhmeOhOTdiMVR-21" vertex="1">
          <mxGeometry x="-35" y="35" width="110" height="40" as="geometry" />
        </mxCell>
        <mxCell id="QvKiuwDlhmeOhOTdiMVR-25" value="M&lt;div&gt;U&lt;/div&gt;&lt;div&gt;X&lt;/div&gt;" style="text;html=1;align=center;verticalAlign=middle;resizable=0;points=[];autosize=1;strokeColor=none;fillColor=none;" parent="QvKiuwDlhmeOhOTdiMVR-21" vertex="1">
          <mxGeometry x="5" y="25" width="30" height="60" as="geometry" />
        </mxCell>
        <mxCell id="QvKiuwDlhmeOhOTdiMVR-26" value="" style="group" parent="1" vertex="1" connectable="0">
          <mxGeometry x="843" y="400" width="160.9" height="151" as="geometry" />
        </mxCell>
        <mxCell id="QvKiuwDlhmeOhOTdiMVR-27" style="edgeStyle=orthogonalEdgeStyle;rounded=0;orthogonalLoop=1;jettySize=auto;html=1;exitX=1;exitY=0.5;exitDx=0;exitDy=0;startArrow=classic;startFill=1;endArrow=none;endFill=0;" parent="QvKiuwDlhmeOhOTdiMVR-26" source="QvKiuwDlhmeOhOTdiMVR-28" edge="1">
          <mxGeometry relative="1" as="geometry">
            <mxPoint x="54" y="202" as="targetPoint" />
          </mxGeometry>
        </mxCell>
        <mxCell id="QvKiuwDlhmeOhOTdiMVR-28" value="" style="shape=trapezoid;perimeter=trapezoidPerimeter;whiteSpace=wrap;html=1;fixedSize=1;rotation=90;size=33.55172413793116;" parent="QvKiuwDlhmeOhOTdiMVR-26" vertex="1">
          <mxGeometry x="-53.04" y="21.560000000000002" width="213.94" height="76.96" as="geometry" />
        </mxCell>
        <mxCell id="QvKiuwDlhmeOhOTdiMVR-29" value="&lt;font style=&quot;font-size: 18px;&quot;&gt;A&lt;/font&gt;&lt;div&gt;&lt;font size=&quot;3&quot;&gt;L&lt;/font&gt;&lt;/div&gt;&lt;div&gt;&lt;font size=&quot;3&quot;&gt;U&lt;/font&gt;&lt;/div&gt;" style="text;html=1;align=center;verticalAlign=middle;resizable=0;points=[];autosize=1;strokeColor=#314354;fillColor=#647687;fontColor=#ffffff;" parent="QvKiuwDlhmeOhOTdiMVR-26" vertex="1">
          <mxGeometry x="58.00090909090909" y="21.56" width="30" height="72" as="geometry" />
        </mxCell>
        <mxCell id="QvKiuwDlhmeOhOTdiMVR-30" value="" style="rounded=0;whiteSpace=wrap;html=1;strokeColor=#FFFFFF;" parent="QvKiuwDlhmeOhOTdiMVR-26" vertex="1">
          <mxGeometry y="23.5" width="20" height="73" as="geometry" />
        </mxCell>
        <mxCell id="QvKiuwDlhmeOhOTdiMVR-31" value="" style="endArrow=none;html=1;rounded=0;exitX=0.674;exitY=1.002;exitDx=0;exitDy=0;exitPerimeter=0;" parent="QvKiuwDlhmeOhOTdiMVR-26" source="QvKiuwDlhmeOhOTdiMVR-28" edge="1">
          <mxGeometry width="50" height="50" relative="1" as="geometry">
            <mxPoint x="7.724363636363544" y="82.16666666666666" as="sourcePoint" />
            <mxPoint x="54.72727272727273" y="55.74166666666666" as="targetPoint" />
          </mxGeometry>
        </mxCell>
        <mxCell id="QvKiuwDlhmeOhOTdiMVR-32" value="" style="endArrow=none;html=1;rounded=0;exitX=0.325;exitY=1.004;exitDx=0;exitDy=0;exitPerimeter=0;" parent="QvKiuwDlhmeOhOTdiMVR-26" source="QvKiuwDlhmeOhOTdiMVR-28" edge="1">
          <mxGeometry width="50" height="50" relative="1" as="geometry">
            <mxPoint x="7.818181818181818" y="30.574999999999996" as="sourcePoint" />
            <mxPoint x="54.72727272727273" y="55.74166666666666" as="targetPoint" />
            <Array as="points">
              <mxPoint x="54.72727272727273" y="55.74166666666666" />
            </Array>
          </mxGeometry>
        </mxCell>
        <mxCell id="QvKiuwDlhmeOhOTdiMVR-33" value="Zero" style="text;html=1;align=center;verticalAlign=middle;resizable=0;points=[];autosize=1;strokeColor=none;fillColor=none;" parent="QvKiuwDlhmeOhOTdiMVR-26" vertex="1">
          <mxGeometry x="97" y="9" width="43" height="26" as="geometry" />
        </mxCell>
        <mxCell id="QvKiuwDlhmeOhOTdiMVR-34" value="Result" style="text;html=1;align=center;verticalAlign=middle;resizable=0;points=[];autosize=1;strokeColor=none;fillColor=none;" parent="QvKiuwDlhmeOhOTdiMVR-26" vertex="1">
          <mxGeometry x="92.5" y="32" width="52" height="26" as="geometry" />
        </mxCell>
        <mxCell id="QvKiuwDlhmeOhOTdiMVR-35" value="" style="group" parent="1" vertex="1" connectable="0">
          <mxGeometry x="786" y="169" width="35" height="92" as="geometry" />
        </mxCell>
        <mxCell id="QvKiuwDlhmeOhOTdiMVR-36" style="edgeStyle=orthogonalEdgeStyle;rounded=0;orthogonalLoop=1;jettySize=auto;html=1;exitX=0.25;exitY=1;exitDx=0;exitDy=0;startArrow=classic;startFill=1;endArrow=none;endFill=0;" parent="QvKiuwDlhmeOhOTdiMVR-35" source="QvKiuwDlhmeOhOTdiMVR-37" edge="1">
          <mxGeometry relative="1" as="geometry">
            <mxPoint x="-101" y="251" as="targetPoint" />
          </mxGeometry>
        </mxCell>
        <mxCell id="vkxR9KCFY0yhszCb_NEq-183" style="edgeStyle=orthogonalEdgeStyle;rounded=0;orthogonalLoop=1;jettySize=auto;html=1;exitX=1;exitY=0.5;exitDx=0;exitDy=0;strokeColor=#FF9999;align=center;verticalAlign=middle;fontFamily=Helvetica;fontSize=11;fontColor=default;labelBackgroundColor=default;startArrow=classic;startFill=1;endArrow=none;endFill=0;fillColor=#f8cecc;" edge="1" parent="QvKiuwDlhmeOhOTdiMVR-35" source="QvKiuwDlhmeOhOTdiMVR-37">
          <mxGeometry relative="1" as="geometry">
            <mxPoint x="17.55639097744347" y="111" as="targetPoint" />
          </mxGeometry>
        </mxCell>
        <mxCell id="QvKiuwDlhmeOhOTdiMVR-37" value="" style="shape=trapezoid;perimeter=trapezoidPerimeter;whiteSpace=wrap;html=1;fixedSize=1;size=20;rotation=90;fillColor=#e1d5e7;strokeColor=#9673a6;" parent="QvKiuwDlhmeOhOTdiMVR-35" vertex="1">
          <mxGeometry x="-30.625" y="29.27272727272727" width="96.25" height="33.45454545454545" as="geometry" />
        </mxCell>
        <mxCell id="QvKiuwDlhmeOhOTdiMVR-38" value="M&lt;div&gt;U&lt;/div&gt;&lt;div&gt;X&lt;/div&gt;" style="text;html=1;align=center;verticalAlign=middle;resizable=0;points=[];autosize=1;strokeColor=none;fillColor=none;" parent="QvKiuwDlhmeOhOTdiMVR-35" vertex="1">
          <mxGeometry x="-0.0049999999999954525" y="15.99909090909091" width="30" height="60" as="geometry" />
        </mxCell>
        <mxCell id="QvKiuwDlhmeOhOTdiMVR-39" value="" style="group" parent="1" vertex="1" connectable="0">
          <mxGeometry x="786" y="60" width="35" height="95" as="geometry" />
        </mxCell>
        <mxCell id="QvKiuwDlhmeOhOTdiMVR-40" style="edgeStyle=orthogonalEdgeStyle;rounded=0;orthogonalLoop=1;jettySize=auto;html=1;exitX=0.25;exitY=1;exitDx=0;exitDy=0;startArrow=classic;startFill=1;endArrow=none;endFill=0;" parent="QvKiuwDlhmeOhOTdiMVR-39" source="QvKiuwDlhmeOhOTdiMVR-41" edge="1">
          <mxGeometry relative="1" as="geometry">
            <mxPoint x="-100.30434782608654" y="23.78260869565247" as="targetPoint" />
          </mxGeometry>
        </mxCell>
        <mxCell id="QvKiuwDlhmeOhOTdiMVR-41" value="" style="shape=trapezoid;perimeter=trapezoidPerimeter;whiteSpace=wrap;html=1;fixedSize=1;size=20;rotation=90;fillColor=#e1d5e7;strokeColor=#9673a6;" parent="QvKiuwDlhmeOhOTdiMVR-39" vertex="1">
          <mxGeometry x="-30.625000000000004" y="30.227272727272727" width="96.25000000000001" height="34.54545454545455" as="geometry" />
        </mxCell>
        <mxCell id="QvKiuwDlhmeOhOTdiMVR-42" value="M&lt;div&gt;U&lt;/div&gt;&lt;div&gt;X&lt;/div&gt;" style="text;html=1;align=center;verticalAlign=middle;resizable=0;points=[];autosize=1;strokeColor=none;fillColor=none;" parent="QvKiuwDlhmeOhOTdiMVR-39" vertex="1">
          <mxGeometry x="4.375" y="21.590909090909093" width="30" height="60" as="geometry" />
        </mxCell>
        <mxCell id="QvKiuwDlhmeOhOTdiMVR-43" value="" style="group" parent="1" vertex="1" connectable="0">
          <mxGeometry x="1281" y="392" width="40" height="110" as="geometry" />
        </mxCell>
        <mxCell id="QvKiuwDlhmeOhOTdiMVR-44" style="edgeStyle=orthogonalEdgeStyle;rounded=0;orthogonalLoop=1;jettySize=auto;html=1;exitX=0.25;exitY=1;exitDx=0;exitDy=0;startArrow=classic;startFill=1;endArrow=none;endFill=0;" parent="QvKiuwDlhmeOhOTdiMVR-43" source="QvKiuwDlhmeOhOTdiMVR-46" edge="1">
          <mxGeometry relative="1" as="geometry">
            <mxPoint x="-230" y="68" as="targetPoint" />
            <Array as="points">
              <mxPoint x="-230" y="27" />
            </Array>
          </mxGeometry>
        </mxCell>
        <mxCell id="QvKiuwDlhmeOhOTdiMVR-45" style="edgeStyle=orthogonalEdgeStyle;rounded=0;orthogonalLoop=1;jettySize=auto;html=1;exitX=1;exitY=0.5;exitDx=0;exitDy=0;startArrow=classic;startFill=1;endArrow=none;endFill=0;" parent="QvKiuwDlhmeOhOTdiMVR-43" source="QvKiuwDlhmeOhOTdiMVR-46" edge="1">
          <mxGeometry relative="1" as="geometry">
            <mxPoint x="19.82978723404267" y="158.63829787234044" as="targetPoint" />
          </mxGeometry>
        </mxCell>
        <mxCell id="QvKiuwDlhmeOhOTdiMVR-46" value="" style="shape=trapezoid;perimeter=trapezoidPerimeter;whiteSpace=wrap;html=1;fixedSize=1;size=20;rotation=90;fillColor=#d0cee2;strokeColor=#56517e;" parent="QvKiuwDlhmeOhOTdiMVR-43" vertex="1">
          <mxGeometry x="-35" y="35" width="110" height="40" as="geometry" />
        </mxCell>
        <mxCell id="QvKiuwDlhmeOhOTdiMVR-47" value="M&lt;div&gt;U&lt;/div&gt;&lt;div&gt;X&lt;/div&gt;" style="text;html=1;align=center;verticalAlign=middle;resizable=0;points=[];autosize=1;strokeColor=none;fillColor=none;" parent="QvKiuwDlhmeOhOTdiMVR-43" vertex="1">
          <mxGeometry x="5" y="25" width="30" height="60" as="geometry" />
        </mxCell>
        <mxCell id="QvKiuwDlhmeOhOTdiMVR-48" value="" style="group" parent="1" vertex="1" connectable="0">
          <mxGeometry x="870" y="95" width="60" height="144" as="geometry" />
        </mxCell>
        <mxCell id="QvKiuwDlhmeOhOTdiMVR-49" value="" style="shape=trapezoid;perimeter=trapezoidPerimeter;whiteSpace=wrap;html=1;fixedSize=1;rotation=90;size=33.55172413793116;" parent="QvKiuwDlhmeOhOTdiMVR-48" vertex="1">
          <mxGeometry x="-32.727272727272734" y="42" width="130.90909090909093" height="60" as="geometry" />
        </mxCell>
        <mxCell id="QvKiuwDlhmeOhOTdiMVR-50" value="" style="rounded=0;whiteSpace=wrap;html=1;strokeColor=#FFFFFF;" parent="QvKiuwDlhmeOhOTdiMVR-48" vertex="1">
          <mxGeometry y="50" width="13.95" height="44" as="geometry" />
        </mxCell>
        <mxCell id="QvKiuwDlhmeOhOTdiMVR-51" value="" style="endArrow=none;html=1;rounded=0;exitX=0.674;exitY=1.002;exitDx=0;exitDy=0;exitPerimeter=0;" parent="QvKiuwDlhmeOhOTdiMVR-48" source="QvKiuwDlhmeOhOTdiMVR-49" edge="1">
          <mxGeometry width="50" height="50" relative="1" as="geometry">
            <mxPoint x="5.389090909090845" y="95.99999999999999" as="sourcePoint" />
            <mxPoint x="38.18181818181818" y="70.8" as="targetPoint" />
          </mxGeometry>
        </mxCell>
        <mxCell id="QvKiuwDlhmeOhOTdiMVR-52" value="" style="endArrow=none;html=1;rounded=0;exitX=0.325;exitY=1.004;exitDx=0;exitDy=0;exitPerimeter=0;" parent="QvKiuwDlhmeOhOTdiMVR-48" source="QvKiuwDlhmeOhOTdiMVR-49" edge="1">
          <mxGeometry width="50" height="50" relative="1" as="geometry">
            <mxPoint x="5.454545454545454" y="46.8" as="sourcePoint" />
            <mxPoint x="38.18181818181818" y="70.8" as="targetPoint" />
            <Array as="points">
              <mxPoint x="38.18181818181818" y="70.8" />
            </Array>
          </mxGeometry>
        </mxCell>
        <mxCell id="QvKiuwDlhmeOhOTdiMVR-53" value="" style="html=1;dashed=0;whiteSpace=wrap;fillColor=#d5e8d4;strokeColor=#82b366;" parent="1" vertex="1">
          <mxGeometry x="1110" y="433" width="100" height="150" as="geometry" />
        </mxCell>
        <mxCell id="QvKiuwDlhmeOhOTdiMVR-54" value="" style="triangle;whiteSpace=wrap;html=1;dashed=0;direction=south;rotation=-180;" parent="1" vertex="1">
          <mxGeometry x="1165" y="573" width="10" height="10" as="geometry" />
        </mxCell>
        <mxCell id="QvKiuwDlhmeOhOTdiMVR-55" style="edgeStyle=orthogonalEdgeStyle;rounded=0;orthogonalLoop=1;jettySize=auto;html=1;exitX=0.5;exitY=1;exitDx=0;exitDy=0;startArrow=classic;startFill=1;endArrow=none;endFill=0;fillColor=#f8cecc;strokeColor=#b85450;" parent="1" source="QvKiuwDlhmeOhOTdiMVR-56" edge="1">
          <mxGeometry relative="1" as="geometry">
            <mxPoint x="113.28571428571445" y="549.5714285714289" as="targetPoint" />
            <Array as="points">
              <mxPoint x="1170" y="829" />
              <mxPoint x="113" y="829" />
            </Array>
          </mxGeometry>
        </mxCell>
        <mxCell id="QvKiuwDlhmeOhOTdiMVR-56" value="" style="shape=ellipse;html=1;dashed=0;whiteSpace=wrap;aspect=fixed;perimeter=ellipsePerimeter;rotation=0;" parent="1" vertex="1">
          <mxGeometry x="1165" y="583" width="10" height="10" as="geometry" />
        </mxCell>
        <mxCell id="QvKiuwDlhmeOhOTdiMVR-57" style="edgeStyle=orthogonalEdgeStyle;rounded=0;orthogonalLoop=1;jettySize=auto;html=1;exitX=0;exitY=0.25;exitDx=0;exitDy=0;startArrow=classic;startFill=1;endArrow=none;endFill=0;" parent="1" source="QvKiuwDlhmeOhOTdiMVR-60" edge="1">
          <mxGeometry relative="1" as="geometry">
            <mxPoint x="1013.909090909091" y="137.969696969697" as="targetPoint" />
          </mxGeometry>
        </mxCell>
        <mxCell id="QvKiuwDlhmeOhOTdiMVR-58" style="edgeStyle=orthogonalEdgeStyle;rounded=0;orthogonalLoop=1;jettySize=auto;html=1;exitX=1;exitY=0.25;exitDx=0;exitDy=0;" parent="1" source="QvKiuwDlhmeOhOTdiMVR-60" edge="1">
          <mxGeometry relative="1" as="geometry">
            <mxPoint x="1246.636363636364" y="137.969696969697" as="targetPoint" />
          </mxGeometry>
        </mxCell>
        <mxCell id="QvKiuwDlhmeOhOTdiMVR-59" style="edgeStyle=orthogonalEdgeStyle;rounded=0;orthogonalLoop=1;jettySize=auto;html=1;exitX=1;exitY=0.75;exitDx=0;exitDy=0;" parent="1" source="QvKiuwDlhmeOhOTdiMVR-60" edge="1">
          <mxGeometry relative="1" as="geometry">
            <mxPoint x="1246.636363636364" y="168.27272727272748" as="targetPoint" />
          </mxGeometry>
        </mxCell>
        <mxCell id="QvKiuwDlhmeOhOTdiMVR-60" value="Branch&lt;div&gt;Cond&lt;/div&gt;" style="html=1;dashed=0;whiteSpace=wrap;fillColor=#bac8d3;strokeColor=#23445d;" parent="1" vertex="1">
          <mxGeometry x="1081" y="123" width="100" height="60" as="geometry" />
        </mxCell>
        <mxCell id="QvKiuwDlhmeOhOTdiMVR-61" value="" style="group" parent="1" vertex="1" connectable="0">
          <mxGeometry x="712" y="482" width="57" height="134" as="geometry" />
        </mxCell>
        <mxCell id="QvKiuwDlhmeOhOTdiMVR-62" style="edgeStyle=orthogonalEdgeStyle;rounded=0;orthogonalLoop=1;jettySize=auto;html=1;startArrow=classic;startFill=1;endArrow=none;endFill=0;" parent="QvKiuwDlhmeOhOTdiMVR-61" source="QvKiuwDlhmeOhOTdiMVR-64" edge="1">
          <mxGeometry relative="1" as="geometry">
            <mxPoint x="-77.48484848484827" y="66.99999999999955" as="targetPoint" />
          </mxGeometry>
        </mxCell>
        <mxCell id="QvKiuwDlhmeOhOTdiMVR-63" style="edgeStyle=orthogonalEdgeStyle;rounded=0;orthogonalLoop=1;jettySize=auto;html=1;exitX=0.75;exitY=1;exitDx=0;exitDy=0;startArrow=classic;startFill=1;endArrow=none;endFill=0;" parent="QvKiuwDlhmeOhOTdiMVR-61" source="QvKiuwDlhmeOhOTdiMVR-64" edge="1">
          <mxGeometry relative="1" as="geometry">
            <mxPoint x="-56.87878787878776" y="106.27272727272748" as="targetPoint" />
          </mxGeometry>
        </mxCell>
        <mxCell id="QvKiuwDlhmeOhOTdiMVR-64" value="" style="shape=trapezoid;perimeter=trapezoidPerimeter;whiteSpace=wrap;html=1;fixedSize=1;size=20;rotation=90;fillColor=#f5f5f5;fontColor=#333333;strokeColor=#666666;" parent="QvKiuwDlhmeOhOTdiMVR-61" vertex="1">
          <mxGeometry x="-49.875" y="42.63636363636364" width="156.75" height="48.727272727272734" as="geometry" />
        </mxCell>
        <mxCell id="QvKiuwDlhmeOhOTdiMVR-65" value="&lt;font style=&quot;font-size: 18px;&quot;&gt;M&lt;/font&gt;&lt;div&gt;&lt;font size=&quot;3&quot;&gt;U&lt;/font&gt;&lt;/div&gt;&lt;div&gt;&lt;font size=&quot;3&quot;&gt;X&lt;/font&gt;&lt;/div&gt;" style="text;html=1;align=center;verticalAlign=middle;resizable=0;points=[];autosize=1;strokeColor=none;fillColor=none;" parent="QvKiuwDlhmeOhOTdiMVR-61" vertex="1">
          <mxGeometry x="12.005" y="25.364545454545457" width="33" height="72" as="geometry" />
        </mxCell>
        <mxCell id="QvKiuwDlhmeOhOTdiMVR-66" value="Addr" style="text;html=1;align=center;verticalAlign=middle;resizable=0;points=[];autosize=1;strokeColor=none;fillColor=none;" parent="1" vertex="1">
          <mxGeometry x="1110" y="445" width="43" height="26" as="geometry" />
        </mxCell>
        <mxCell id="QvKiuwDlhmeOhOTdiMVR-67" value="&lt;span style=&quot;text-wrap-mode: wrap;&quot;&gt;&lt;font style=&quot;font-size: 18px;&quot;&gt;&lt;b style=&quot;&quot;&gt;Data&lt;/b&gt;&lt;/font&gt;&lt;/span&gt;&lt;div style=&quot;text-wrap-mode: wrap;&quot;&gt;&lt;font size=&quot;3&quot;&gt;&lt;b&gt;Mem&lt;/b&gt;&lt;/font&gt;&lt;/div&gt;" style="text;html=1;align=center;verticalAlign=middle;resizable=0;points=[];autosize=1;strokeColor=none;fillColor=none;" parent="1" vertex="1">
          <mxGeometry x="1151" y="433" width="57" height="53" as="geometry" />
        </mxCell>
        <mxCell id="QvKiuwDlhmeOhOTdiMVR-68" style="edgeStyle=orthogonalEdgeStyle;rounded=0;orthogonalLoop=1;jettySize=auto;html=1;startArrow=classic;startFill=1;endArrow=none;endFill=0;" parent="1" source="QvKiuwDlhmeOhOTdiMVR-69" edge="1">
          <mxGeometry relative="1" as="geometry">
            <mxPoint x="1049" y="489.99999999999955" as="targetPoint" />
          </mxGeometry>
        </mxCell>
        <mxCell id="QvKiuwDlhmeOhOTdiMVR-69" value="MemOp" style="text;html=1;align=center;verticalAlign=middle;resizable=0;points=[];autosize=1;strokeColor=none;fillColor=none;" parent="1" vertex="1">
          <mxGeometry x="1110" y="477" width="61" height="26" as="geometry" />
        </mxCell>
        <mxCell id="QvKiuwDlhmeOhOTdiMVR-70" style="edgeStyle=orthogonalEdgeStyle;rounded=0;orthogonalLoop=1;jettySize=auto;html=1;startArrow=classic;startFill=1;endArrow=none;endFill=0;" parent="1" source="QvKiuwDlhmeOhOTdiMVR-71" edge="1">
          <mxGeometry relative="1" as="geometry">
            <mxPoint x="643" y="475" as="targetPoint" />
            <Array as="points">
              <mxPoint x="978" y="539" />
              <mxPoint x="978" y="661" />
              <mxPoint x="643" y="661" />
            </Array>
          </mxGeometry>
        </mxCell>
        <mxCell id="QvKiuwDlhmeOhOTdiMVR-71" value="DataIn" style="text;html=1;align=center;verticalAlign=middle;resizable=0;points=[];autosize=1;strokeColor=none;fillColor=none;" parent="1" vertex="1">
          <mxGeometry x="1110" y="526" width="53" height="26" as="geometry" />
        </mxCell>
        <mxCell id="QvKiuwDlhmeOhOTdiMVR-72" style="edgeStyle=orthogonalEdgeStyle;rounded=0;orthogonalLoop=1;jettySize=auto;html=1;startArrow=classic;startFill=1;endArrow=none;endFill=0;" parent="1" source="QvKiuwDlhmeOhOTdiMVR-73" edge="1">
          <mxGeometry relative="1" as="geometry">
            <mxPoint x="1053.2857142857142" y="568" as="targetPoint" />
          </mxGeometry>
        </mxCell>
        <mxCell id="QvKiuwDlhmeOhOTdiMVR-73" value="WrEn" style="text;html=1;align=center;verticalAlign=middle;resizable=0;points=[];autosize=1;strokeColor=none;fillColor=none;" parent="1" vertex="1">
          <mxGeometry x="1110" y="555" width="48" height="26" as="geometry" />
        </mxCell>
        <mxCell id="QvKiuwDlhmeOhOTdiMVR-74" style="edgeStyle=orthogonalEdgeStyle;rounded=0;orthogonalLoop=1;jettySize=auto;html=1;entryX=0.75;entryY=1;entryDx=0;entryDy=0;" parent="1" source="QvKiuwDlhmeOhOTdiMVR-75" target="QvKiuwDlhmeOhOTdiMVR-46" edge="1">
          <mxGeometry relative="1" as="geometry" />
        </mxCell>
        <mxCell id="QvKiuwDlhmeOhOTdiMVR-75" value="DataOut" style="text;html=1;align=center;verticalAlign=middle;resizable=0;points=[];autosize=1;strokeColor=none;fillColor=none;" parent="1" vertex="1">
          <mxGeometry x="1146.5" y="495" width="63" height="26" as="geometry" />
        </mxCell>
        <mxCell id="QvKiuwDlhmeOhOTdiMVR-76" value="" style="triangle;whiteSpace=wrap;html=1;dashed=0;direction=south;rotation=-180;" parent="1" vertex="1">
          <mxGeometry x="1188" y="573" width="10" height="10" as="geometry" />
        </mxCell>
        <mxCell id="QvKiuwDlhmeOhOTdiMVR-77" style="edgeStyle=orthogonalEdgeStyle;rounded=0;orthogonalLoop=1;jettySize=auto;html=1;exitX=0.5;exitY=1;exitDx=0;exitDy=0;startArrow=classic;startFill=1;endArrow=none;endFill=0;fillColor=#f8cecc;strokeColor=#b85450;" parent="1" source="QvKiuwDlhmeOhOTdiMVR-78" edge="1">
          <mxGeometry relative="1" as="geometry">
            <mxPoint x="160.42857142857156" y="548.8571428571431" as="targetPoint" />
            <Array as="points">
              <mxPoint x="1193" y="846" />
              <mxPoint x="160" y="846" />
            </Array>
          </mxGeometry>
        </mxCell>
        <mxCell id="QvKiuwDlhmeOhOTdiMVR-78" value="" style="shape=ellipse;html=1;dashed=0;whiteSpace=wrap;aspect=fixed;perimeter=ellipsePerimeter;rotation=0;" parent="1" vertex="1">
          <mxGeometry x="1188" y="583" width="10" height="10" as="geometry" />
        </mxCell>
        <mxCell id="QvKiuwDlhmeOhOTdiMVR-79" value="Rd" style="text;html=1;align=center;verticalAlign=middle;resizable=0;points=[];autosize=1;strokeColor=none;fillColor=none;" parent="1" vertex="1">
          <mxGeometry x="1151" y="543" width="33" height="26" as="geometry" />
        </mxCell>
        <mxCell id="QvKiuwDlhmeOhOTdiMVR-80" value="Wr" style="text;html=1;align=center;verticalAlign=middle;resizable=0;points=[];autosize=1;strokeColor=none;fillColor=none;" parent="1" vertex="1">
          <mxGeometry x="1176.5" y="543" width="33" height="26" as="geometry" />
        </mxCell>
        <mxCell id="QvKiuwDlhmeOhOTdiMVR-81" value="Rd" style="text;html=1;align=center;verticalAlign=middle;resizable=0;points=[];autosize=1;strokeColor=none;fillColor=none;" parent="1" vertex="1">
          <mxGeometry x="166" y="374" width="33" height="26" as="geometry" />
        </mxCell>
        <mxCell id="QvKiuwDlhmeOhOTdiMVR-82" value="clk" style="text;html=1;align=center;verticalAlign=middle;resizable=0;points=[];autosize=1;strokeColor=none;fillColor=none;" parent="1" vertex="1">
          <mxGeometry x="130" y="380" width="33" height="26" as="geometry" />
        </mxCell>
        <mxCell id="QvKiuwDlhmeOhOTdiMVR-83" value="Rd" style="text;html=1;align=center;verticalAlign=middle;resizable=0;points=[];autosize=1;strokeColor=none;fillColor=none;" parent="1" vertex="1">
          <mxGeometry x="166" y="462" width="33" height="26" as="geometry" />
        </mxCell>
        <mxCell id="QvKiuwDlhmeOhOTdiMVR-84" value="addr" style="text;html=1;align=center;verticalAlign=middle;resizable=0;points=[];autosize=1;strokeColor=none;fillColor=none;" parent="1" vertex="1">
          <mxGeometry x="162" y="480" width="42" height="26" as="geometry" />
        </mxCell>
        <mxCell id="QvKiuwDlhmeOhOTdiMVR-85" value="Instr" style="text;html=1;align=center;verticalAlign=middle;resizable=0;points=[];autosize=1;strokeColor=none;fillColor=none;" parent="1" vertex="1">
          <mxGeometry x="219" y="432" width="41" height="26" as="geometry" />
        </mxCell>
        <mxCell id="QvKiuwDlhmeOhOTdiMVR-86" style="edgeStyle=orthogonalEdgeStyle;rounded=0;orthogonalLoop=1;jettySize=auto;html=1;startArrow=classic;startFill=1;endArrow=none;endFill=0;" parent="1" source="QvKiuwDlhmeOhOTdiMVR-87" edge="1">
          <mxGeometry relative="1" as="geometry">
            <mxPoint x="335.16666666666674" y="445.8333333333335" as="targetPoint" />
          </mxGeometry>
        </mxCell>
        <mxCell id="QvKiuwDlhmeOhOTdiMVR-87" value="Ra" style="text;html=1;align=center;verticalAlign=middle;resizable=0;points=[];autosize=1;strokeColor=none;fillColor=none;" parent="1" vertex="1">
          <mxGeometry x="490" y="374" width="33" height="26" as="geometry" />
        </mxCell>
        <mxCell id="QvKiuwDlhmeOhOTdiMVR-88" style="edgeStyle=orthogonalEdgeStyle;rounded=0;orthogonalLoop=1;jettySize=auto;html=1;startArrow=classic;startFill=1;endArrow=none;endFill=0;" parent="1" source="QvKiuwDlhmeOhOTdiMVR-89" edge="1">
          <mxGeometry relative="1" as="geometry">
            <mxPoint x="336" y="413" as="targetPoint" />
          </mxGeometry>
        </mxCell>
        <mxCell id="QvKiuwDlhmeOhOTdiMVR-89" value="Rb" style="text;html=1;align=center;verticalAlign=middle;resizable=0;points=[];autosize=1;strokeColor=none;fillColor=none;" parent="1" vertex="1">
          <mxGeometry x="490" y="400" width="33" height="26" as="geometry" />
        </mxCell>
        <mxCell id="QvKiuwDlhmeOhOTdiMVR-90" value="Rw" style="text;html=1;align=center;verticalAlign=middle;resizable=0;points=[];autosize=1;strokeColor=none;fillColor=none;" parent="1" vertex="1">
          <mxGeometry x="490" y="434" width="35" height="26" as="geometry" />
        </mxCell>
        <mxCell id="QvKiuwDlhmeOhOTdiMVR-91" value="busW" style="text;html=1;align=center;verticalAlign=middle;resizable=0;points=[];autosize=1;strokeColor=none;fillColor=none;" parent="1" vertex="1">
          <mxGeometry x="490" y="467" width="49" height="26" as="geometry" />
        </mxCell>
        <mxCell id="QvKiuwDlhmeOhOTdiMVR-92" style="edgeStyle=orthogonalEdgeStyle;rounded=0;orthogonalLoop=1;jettySize=auto;html=1;startArrow=classic;startFill=1;endArrow=none;endFill=0;" parent="1" source="QvKiuwDlhmeOhOTdiMVR-93" edge="1">
          <mxGeometry relative="1" as="geometry">
            <mxPoint x="426.8333333333335" y="501" as="targetPoint" />
          </mxGeometry>
        </mxCell>
        <mxCell id="QvKiuwDlhmeOhOTdiMVR-93" value="RegWr" style="text;html=1;align=center;verticalAlign=middle;resizable=0;points=[];autosize=1;strokeColor=none;fillColor=none;" parent="1" vertex="1">
          <mxGeometry x="490" y="488" width="55" height="26" as="geometry" />
        </mxCell>
        <mxCell id="QvKiuwDlhmeOhOTdiMVR-94" value="Wr" style="text;html=1;align=center;verticalAlign=middle;resizable=0;points=[];autosize=1;strokeColor=none;fillColor=none;" parent="1" vertex="1">
          <mxGeometry x="543" y="480" width="33" height="26" as="geometry" />
        </mxCell>
        <mxCell id="QvKiuwDlhmeOhOTdiMVR-95" value="Clk" style="text;html=1;align=center;verticalAlign=middle;resizable=0;points=[];autosize=1;strokeColor=none;fillColor=none;" parent="1" vertex="1">
          <mxGeometry x="542" y="500" width="35" height="26" as="geometry" />
        </mxCell>
        <mxCell id="QvKiuwDlhmeOhOTdiMVR-96" style="edgeStyle=orthogonalEdgeStyle;rounded=0;orthogonalLoop=1;jettySize=auto;html=1;entryX=0.25;entryY=1;entryDx=0;entryDy=0;" parent="1" source="QvKiuwDlhmeOhOTdiMVR-97" target="QvKiuwDlhmeOhOTdiMVR-64" edge="1">
          <mxGeometry relative="1" as="geometry" />
        </mxCell>
        <mxCell id="QvKiuwDlhmeOhOTdiMVR-97" value="busB" style="text;html=1;align=center;verticalAlign=middle;resizable=0;points=[];autosize=1;strokeColor=none;fillColor=none;" parent="1" vertex="1">
          <mxGeometry x="545.5" y="462.5" width="45" height="26" as="geometry" />
        </mxCell>
        <mxCell id="QvKiuwDlhmeOhOTdiMVR-98" style="edgeStyle=orthogonalEdgeStyle;rounded=0;orthogonalLoop=1;jettySize=auto;html=1;entryX=0.75;entryY=1;entryDx=0;entryDy=0;" parent="1" source="QvKiuwDlhmeOhOTdiMVR-99" target="QvKiuwDlhmeOhOTdiMVR-24" edge="1">
          <mxGeometry relative="1" as="geometry" />
        </mxCell>
        <mxCell id="QvKiuwDlhmeOhOTdiMVR-99" value="busA" style="text;html=1;align=center;verticalAlign=middle;resizable=0;points=[];autosize=1;strokeColor=none;fillColor=none;" parent="1" vertex="1">
          <mxGeometry x="545" y="408" width="45" height="26" as="geometry" />
        </mxCell>
        <mxCell id="QvKiuwDlhmeOhOTdiMVR-100" style="edgeStyle=orthogonalEdgeStyle;rounded=0;orthogonalLoop=1;jettySize=auto;html=1;startArrow=classic;startFill=1;endArrow=none;endFill=0;" parent="1" source="QvKiuwDlhmeOhOTdiMVR-101" edge="1">
          <mxGeometry relative="1" as="geometry">
            <mxPoint x="335.66666666666674" y="607.3333333333335" as="targetPoint" />
          </mxGeometry>
        </mxCell>
        <mxCell id="QvKiuwDlhmeOhOTdiMVR-101" value="&lt;font style=&quot;font-size: 14px;&quot;&gt;op&lt;/font&gt;" style="text;html=1;align=center;verticalAlign=middle;resizable=0;points=[];autosize=1;strokeColor=none;fillColor=none;" parent="1" vertex="1">
          <mxGeometry x="490" y="708" width="34" height="29" as="geometry" />
        </mxCell>
        <mxCell id="QvKiuwDlhmeOhOTdiMVR-102" style="edgeStyle=orthogonalEdgeStyle;rounded=0;orthogonalLoop=1;jettySize=auto;html=1;startArrow=classic;startFill=1;endArrow=none;endFill=0;" parent="1" source="QvKiuwDlhmeOhOTdiMVR-103" edge="1">
          <mxGeometry relative="1" as="geometry">
            <mxPoint x="336" y="679.3333333333335" as="targetPoint" />
          </mxGeometry>
        </mxCell>
        <mxCell id="QvKiuwDlhmeOhOTdiMVR-103" value="&lt;font style=&quot;font-size: 14px;&quot;&gt;func3&lt;/font&gt;" style="text;html=1;align=center;verticalAlign=middle;resizable=0;points=[];autosize=1;strokeColor=none;fillColor=none;" parent="1" vertex="1">
          <mxGeometry x="490" y="742.5" width="52" height="29" as="geometry" />
        </mxCell>
        <mxCell id="QvKiuwDlhmeOhOTdiMVR-104" style="edgeStyle=orthogonalEdgeStyle;rounded=0;orthogonalLoop=1;jettySize=auto;html=1;startArrow=classic;startFill=1;endArrow=none;endFill=0;" parent="1" source="QvKiuwDlhmeOhOTdiMVR-105" edge="1">
          <mxGeometry relative="1" as="geometry">
            <mxPoint x="336.33333333333326" y="728" as="targetPoint" />
          </mxGeometry>
        </mxCell>
        <mxCell id="QvKiuwDlhmeOhOTdiMVR-105" value="&lt;font style=&quot;font-size: 14px;&quot;&gt;func7&lt;/font&gt;" style="text;html=1;align=center;verticalAlign=middle;resizable=0;points=[];autosize=1;strokeColor=none;fillColor=none;" parent="1" vertex="1">
          <mxGeometry x="490" y="775" width="52" height="29" as="geometry" />
        </mxCell>
        <mxCell id="QvKiuwDlhmeOhOTdiMVR-106" value="&lt;font style=&quot;font-size: 8px;&quot;&gt;ExtOp&lt;/font&gt;" style="text;html=1;align=center;verticalAlign=middle;resizable=0;points=[];autosize=1;strokeColor=none;fillColor=none;fontColor=#CC99FF;" parent="1" vertex="1">
          <mxGeometry x="614" y="695" width="40" height="26" as="geometry" />
        </mxCell>
        <mxCell id="QvKiuwDlhmeOhOTdiMVR-107" value="&lt;font style=&quot;font-size: 8px;&quot;&gt;RegWr&lt;/font&gt;" style="text;html=1;align=center;verticalAlign=middle;resizable=0;points=[];autosize=1;strokeColor=none;fillColor=none;fontColor=#CC99FF;" parent="1" vertex="1">
          <mxGeometry x="612.5" y="708" width="43" height="26" as="geometry" />
        </mxCell>
        <mxCell id="QvKiuwDlhmeOhOTdiMVR-108" value="&lt;font style=&quot;font-size: 8px;&quot;&gt;ALUAsrc&lt;/font&gt;" style="text;html=1;align=center;verticalAlign=middle;resizable=0;points=[];autosize=1;strokeColor=none;fillColor=none;fontColor=#CC99FF;" parent="1" vertex="1">
          <mxGeometry x="609.5" y="721" width="50" height="26" as="geometry" />
        </mxCell>
        <mxCell id="QvKiuwDlhmeOhOTdiMVR-109" value="&lt;font style=&quot;font-size: 8px;&quot;&gt;ALUBsrc&lt;/font&gt;" style="text;html=1;align=center;verticalAlign=middle;resizable=0;points=[];autosize=1;strokeColor=none;fillColor=none;fontColor=#CC99FF;" parent="1" vertex="1">
          <mxGeometry x="609.5" y="732" width="50" height="26" as="geometry" />
        </mxCell>
        <mxCell id="QvKiuwDlhmeOhOTdiMVR-110" value="&lt;font style=&quot;font-size: 8px;&quot;&gt;ALUCtr&lt;/font&gt;" style="text;html=1;align=center;verticalAlign=middle;resizable=0;points=[];autosize=1;strokeColor=none;fillColor=none;fontColor=#CC99FF;" parent="1" vertex="1">
          <mxGeometry x="612.5" y="744" width="44" height="26" as="geometry" />
        </mxCell>
        <mxCell id="QvKiuwDlhmeOhOTdiMVR-111" value="&lt;font style=&quot;font-size: 8px;&quot;&gt;Branch&lt;/font&gt;" style="text;html=1;align=center;verticalAlign=middle;resizable=0;points=[];autosize=1;strokeColor=none;fillColor=none;fontColor=#CC99FF;" parent="1" vertex="1">
          <mxGeometry x="613" y="755" width="43" height="26" as="geometry" />
        </mxCell>
        <mxCell id="QvKiuwDlhmeOhOTdiMVR-112" value="&lt;font style=&quot;font-size: 8px;&quot;&gt;MemtoReg&lt;/font&gt;" style="text;html=1;align=center;verticalAlign=middle;resizable=0;points=[];autosize=1;strokeColor=none;fillColor=none;fontColor=#CC99FF;" parent="1" vertex="1">
          <mxGeometry x="605.5" y="767" width="57" height="26" as="geometry" />
        </mxCell>
        <mxCell id="QvKiuwDlhmeOhOTdiMVR-113" value="&lt;font style=&quot;font-size: 8px;&quot;&gt;MemWr&lt;/font&gt;" style="text;html=1;align=center;verticalAlign=middle;resizable=0;points=[];autosize=1;strokeColor=none;fillColor=none;fontColor=#CC99FF;" parent="1" vertex="1">
          <mxGeometry x="612" y="778" width="46" height="26" as="geometry" />
        </mxCell>
        <mxCell id="QvKiuwDlhmeOhOTdiMVR-114" value="&lt;font style=&quot;font-size: 8px;&quot;&gt;MemOp&lt;/font&gt;" style="text;html=1;align=center;verticalAlign=middle;resizable=0;points=[];autosize=1;strokeColor=none;fillColor=none;fontColor=#CC99FF;" parent="1" vertex="1">
          <mxGeometry x="613" y="790" width="46" height="26" as="geometry" />
        </mxCell>
        <mxCell id="QvKiuwDlhmeOhOTdiMVR-115" value="&lt;font style=&quot;text-wrap-mode: wrap; font-size: 18px;&quot;&gt;Contr&lt;/font&gt;&lt;div style=&quot;text-wrap-mode: wrap;&quot;&gt;&lt;font size=&quot;3&quot;&gt;Gen&lt;/font&gt;&lt;/div&gt;" style="text;html=1;align=center;verticalAlign=middle;resizable=0;points=[];autosize=1;strokeColor=none;fillColor=none;" parent="1" vertex="1">
          <mxGeometry x="523" y="706" width="62" height="53" as="geometry" />
        </mxCell>
        <mxCell id="QvKiuwDlhmeOhOTdiMVR-116" style="edgeStyle=orthogonalEdgeStyle;rounded=0;orthogonalLoop=1;jettySize=auto;html=1;entryX=0.17;entryY=0.985;entryDx=0;entryDy=0;entryPerimeter=0;" parent="1" source="QvKiuwDlhmeOhOTdiMVR-42" target="QvKiuwDlhmeOhOTdiMVR-49" edge="1">
          <mxGeometry relative="1" as="geometry" />
        </mxCell>
        <mxCell id="QvKiuwDlhmeOhOTdiMVR-117" style="edgeStyle=orthogonalEdgeStyle;rounded=0;orthogonalLoop=1;jettySize=auto;html=1;" parent="1" source="QvKiuwDlhmeOhOTdiMVR-49" target="QvKiuwDlhmeOhOTdiMVR-2" edge="1">
          <mxGeometry relative="1" as="geometry">
            <Array as="points">
              <mxPoint x="971" y="167" />
              <mxPoint x="971" y="44" />
              <mxPoint x="90" y="44" />
            </Array>
          </mxGeometry>
        </mxCell>
        <mxCell id="QvKiuwDlhmeOhOTdiMVR-118" style="edgeStyle=orthogonalEdgeStyle;rounded=0;orthogonalLoop=1;jettySize=auto;html=1;entryX=-0.014;entryY=0.407;entryDx=0;entryDy=0;entryPerimeter=0;" parent="1" source="QvKiuwDlhmeOhOTdiMVR-7" target="QvKiuwDlhmeOhOTdiMVR-90" edge="1">
          <mxGeometry relative="1" as="geometry">
            <mxPoint x="483" y="445" as="targetPoint" />
          </mxGeometry>
        </mxCell>
        <mxCell id="QvKiuwDlhmeOhOTdiMVR-119" value="" style="endArrow=none;html=1;rounded=0;exitX=-0.091;exitY=0.191;exitDx=0;exitDy=0;exitPerimeter=0;" parent="1" source="QvKiuwDlhmeOhOTdiMVR-120" edge="1">
          <mxGeometry width="50" height="50" relative="1" as="geometry">
            <mxPoint x="191" y="69" as="sourcePoint" />
            <mxPoint x="231" y="29" as="targetPoint" />
          </mxGeometry>
        </mxCell>
        <mxCell id="QvKiuwDlhmeOhOTdiMVR-120" value="32" style="text;html=1;align=center;verticalAlign=middle;resizable=0;points=[];autosize=1;strokeColor=none;fillColor=none;" parent="1" vertex="1">
          <mxGeometry x="204" y="53" width="31" height="26" as="geometry" />
        </mxCell>
        <mxCell id="QvKiuwDlhmeOhOTdiMVR-121" value="NextPC" style="text;html=1;align=center;verticalAlign=middle;resizable=0;points=[];autosize=1;strokeColor=none;fillColor=none;" parent="1" vertex="1">
          <mxGeometry x="341" y="9" width="59" height="26" as="geometry" />
        </mxCell>
        <mxCell id="QvKiuwDlhmeOhOTdiMVR-122" value="" style="endArrow=none;html=1;rounded=0;exitX=-0.091;exitY=0.191;exitDx=0;exitDy=0;exitPerimeter=0;" parent="1" source="QvKiuwDlhmeOhOTdiMVR-123" edge="1">
          <mxGeometry width="50" height="50" relative="1" as="geometry">
            <mxPoint x="116" y="364" as="sourcePoint" />
            <mxPoint x="156" y="324" as="targetPoint" />
          </mxGeometry>
        </mxCell>
        <mxCell id="QvKiuwDlhmeOhOTdiMVR-123" value="32" style="text;html=1;align=center;verticalAlign=middle;resizable=0;points=[];autosize=1;strokeColor=none;fillColor=none;" parent="1" vertex="1">
          <mxGeometry x="129" y="348" width="31" height="26" as="geometry" />
        </mxCell>
        <mxCell id="QvKiuwDlhmeOhOTdiMVR-124" style="edgeStyle=orthogonalEdgeStyle;rounded=0;orthogonalLoop=1;jettySize=auto;html=1;entryX=0.862;entryY=1.001;entryDx=0;entryDy=0;entryPerimeter=0;" parent="1" source="QvKiuwDlhmeOhOTdiMVR-37" target="QvKiuwDlhmeOhOTdiMVR-49" edge="1">
          <mxGeometry relative="1" as="geometry" />
        </mxCell>
        <mxCell id="QvKiuwDlhmeOhOTdiMVR-125" value="ExtOp" style="text;html=1;align=center;verticalAlign=middle;resizable=0;points=[];autosize=1;strokeColor=none;fillColor=none;fontColor=#CC99FF;" parent="1" vertex="1">
          <mxGeometry x="425" y="629" width="51" height="26" as="geometry" />
        </mxCell>
        <mxCell id="QvKiuwDlhmeOhOTdiMVR-126" value="inst[31:7]" style="text;html=1;align=center;verticalAlign=middle;resizable=0;points=[];autosize=1;strokeColor=none;fillColor=none;" parent="1" vertex="1">
          <mxGeometry x="341" y="595" width="67" height="26" as="geometry" />
        </mxCell>
        <mxCell id="QvKiuwDlhmeOhOTdiMVR-127" value="inst[19:15]" style="text;html=1;align=center;verticalAlign=middle;resizable=0;points=[];autosize=1;strokeColor=none;fillColor=none;" parent="1" vertex="1">
          <mxGeometry x="347" y="357" width="73" height="26" as="geometry" />
        </mxCell>
        <mxCell id="QvKiuwDlhmeOhOTdiMVR-128" value="inst[24:20]" style="text;html=1;align=center;verticalAlign=middle;resizable=0;points=[];autosize=1;strokeColor=none;fillColor=none;" parent="1" vertex="1">
          <mxGeometry x="347" y="386" width="73" height="26" as="geometry" />
        </mxCell>
        <mxCell id="QvKiuwDlhmeOhOTdiMVR-129" value="inst[11: 7]" style="text;html=1;align=center;verticalAlign=middle;resizable=0;points=[];autosize=1;strokeColor=none;fillColor=none;" parent="1" vertex="1">
          <mxGeometry x="349" y="418" width="69" height="26" as="geometry" />
        </mxCell>
        <mxCell id="QvKiuwDlhmeOhOTdiMVR-130" value="" style="endArrow=none;html=1;rounded=0;" parent="1" edge="1">
          <mxGeometry width="50" height="50" relative="1" as="geometry">
            <mxPoint x="428" y="395" as="sourcePoint" />
            <mxPoint x="445" y="377" as="targetPoint" />
          </mxGeometry>
        </mxCell>
        <mxCell id="QvKiuwDlhmeOhOTdiMVR-131" value="&lt;font style=&quot;font-size: 10px;&quot;&gt;5&lt;/font&gt;" style="text;html=1;align=center;verticalAlign=middle;resizable=0;points=[];autosize=1;strokeColor=none;fillColor=none;" parent="1" vertex="1">
          <mxGeometry x="426.5" y="380" width="24" height="26" as="geometry" />
        </mxCell>
        <mxCell id="QvKiuwDlhmeOhOTdiMVR-132" value="" style="endArrow=none;html=1;rounded=0;" parent="1" edge="1">
          <mxGeometry width="50" height="50" relative="1" as="geometry">
            <mxPoint x="428" y="421" as="sourcePoint" />
            <mxPoint x="445" y="403" as="targetPoint" />
          </mxGeometry>
        </mxCell>
        <mxCell id="QvKiuwDlhmeOhOTdiMVR-133" value="&lt;font style=&quot;font-size: 10px;&quot;&gt;5&lt;/font&gt;" style="text;html=1;align=center;verticalAlign=middle;resizable=0;points=[];autosize=1;strokeColor=none;fillColor=none;" parent="1" vertex="1">
          <mxGeometry x="426.5" y="406" width="24" height="26" as="geometry" />
        </mxCell>
        <mxCell id="QvKiuwDlhmeOhOTdiMVR-134" value="" style="endArrow=none;html=1;rounded=0;" parent="1" edge="1">
          <mxGeometry width="50" height="50" relative="1" as="geometry">
            <mxPoint x="428" y="454" as="sourcePoint" />
            <mxPoint x="445" y="436" as="targetPoint" />
          </mxGeometry>
        </mxCell>
        <mxCell id="QvKiuwDlhmeOhOTdiMVR-135" value="&lt;font style=&quot;font-size: 10px;&quot;&gt;5&lt;/font&gt;" style="text;html=1;align=center;verticalAlign=middle;resizable=0;points=[];autosize=1;strokeColor=none;fillColor=none;" parent="1" vertex="1">
          <mxGeometry x="427" y="436" width="24" height="26" as="geometry" />
        </mxCell>
        <mxCell id="QvKiuwDlhmeOhOTdiMVR-136" value="4" style="text;html=1;align=center;verticalAlign=middle;resizable=0;points=[];autosize=1;strokeColor=none;fillColor=none;" parent="1" vertex="1">
          <mxGeometry x="682" y="60" width="25" height="26" as="geometry" />
        </mxCell>
        <mxCell id="QvKiuwDlhmeOhOTdiMVR-137" value="&lt;font style=&quot;font-size: 18px;&quot;&gt;imm&lt;/font&gt;" style="text;html=1;align=center;verticalAlign=middle;resizable=0;points=[];autosize=1;strokeColor=none;fillColor=none;" parent="1" vertex="1">
          <mxGeometry x="649" y="95" width="52" height="34" as="geometry" />
        </mxCell>
        <mxCell id="QvKiuwDlhmeOhOTdiMVR-138" style="edgeStyle=orthogonalEdgeStyle;rounded=0;orthogonalLoop=1;jettySize=auto;html=1;" parent="1" source="QvKiuwDlhmeOhOTdiMVR-64" edge="1">
          <mxGeometry relative="1" as="geometry">
            <mxPoint x="857" y="531" as="targetPoint" />
          </mxGeometry>
        </mxCell>
        <mxCell id="QvKiuwDlhmeOhOTdiMVR-139" value="4" style="text;html=1;align=center;verticalAlign=middle;resizable=0;points=[];autosize=1;strokeColor=none;fillColor=none;" parent="1" vertex="1">
          <mxGeometry x="637.5" y="575" width="25" height="26" as="geometry" />
        </mxCell>
        <mxCell id="QvKiuwDlhmeOhOTdiMVR-140" value="" style="endArrow=none;html=1;rounded=0;" parent="1" edge="1">
          <mxGeometry width="50" height="50" relative="1" as="geometry">
            <mxPoint x="603" y="652" as="sourcePoint" />
            <mxPoint x="620" y="634" as="targetPoint" />
          </mxGeometry>
        </mxCell>
        <mxCell id="QvKiuwDlhmeOhOTdiMVR-141" value="&lt;font style=&quot;font-size: 10px;&quot;&gt;32&lt;/font&gt;" style="text;html=1;align=center;verticalAlign=middle;resizable=0;points=[];autosize=1;strokeColor=none;fillColor=none;" parent="1" vertex="1">
          <mxGeometry x="600" y="634" width="29" height="26" as="geometry" />
        </mxCell>
        <mxCell id="QvKiuwDlhmeOhOTdiMVR-142" value="" style="endArrow=none;html=1;rounded=0;" parent="1" edge="1">
          <mxGeometry width="50" height="50" relative="1" as="geometry">
            <mxPoint x="779" y="559" as="sourcePoint" />
            <mxPoint x="796" y="541" as="targetPoint" />
          </mxGeometry>
        </mxCell>
        <mxCell id="QvKiuwDlhmeOhOTdiMVR-143" value="&lt;font style=&quot;font-size: 10px;&quot;&gt;32&lt;/font&gt;" style="text;html=1;align=center;verticalAlign=middle;resizable=0;points=[];autosize=1;strokeColor=none;fillColor=none;" parent="1" vertex="1">
          <mxGeometry x="776" y="541" width="29" height="26" as="geometry" />
        </mxCell>
        <mxCell id="QvKiuwDlhmeOhOTdiMVR-144" value="imm" style="text;html=1;align=center;verticalAlign=middle;resizable=0;points=[];autosize=1;strokeColor=none;fillColor=none;" parent="1" vertex="1">
          <mxGeometry x="764" y="515" width="41" height="26" as="geometry" />
        </mxCell>
        <mxCell id="QvKiuwDlhmeOhOTdiMVR-145" value="" style="endArrow=none;html=1;rounded=0;" parent="1" edge="1">
          <mxGeometry width="50" height="50" relative="1" as="geometry">
            <mxPoint x="801" y="404" as="sourcePoint" />
            <mxPoint x="818" y="386" as="targetPoint" />
          </mxGeometry>
        </mxCell>
        <mxCell id="QvKiuwDlhmeOhOTdiMVR-146" value="&lt;font style=&quot;font-size: 10px;&quot;&gt;32&lt;/font&gt;" style="text;html=1;align=center;verticalAlign=middle;resizable=0;points=[];autosize=1;strokeColor=none;fillColor=none;" parent="1" vertex="1">
          <mxGeometry x="798" y="386" width="29" height="26" as="geometry" />
        </mxCell>
        <mxCell id="QvKiuwDlhmeOhOTdiMVR-147" style="edgeStyle=orthogonalEdgeStyle;rounded=0;orthogonalLoop=1;jettySize=auto;html=1;exitX=0.25;exitY=0;exitDx=0;exitDy=0;entryX=0;entryY=0.5;entryDx=0;entryDy=0;" parent="1" source="QvKiuwDlhmeOhOTdiMVR-28" target="QvKiuwDlhmeOhOTdiMVR-60" edge="1">
          <mxGeometry relative="1" as="geometry" />
        </mxCell>
        <mxCell id="QvKiuwDlhmeOhOTdiMVR-148" style="edgeStyle=orthogonalEdgeStyle;rounded=0;orthogonalLoop=1;jettySize=auto;html=1;exitX=0;exitY=0.75;exitDx=0;exitDy=0;entryX=0.369;entryY=-0.004;entryDx=0;entryDy=0;entryPerimeter=0;startArrow=classic;startFill=1;endArrow=none;endFill=0;" parent="1" source="QvKiuwDlhmeOhOTdiMVR-60" target="QvKiuwDlhmeOhOTdiMVR-28" edge="1">
          <mxGeometry relative="1" as="geometry">
            <Array as="points">
              <mxPoint x="1042" y="168" />
              <mxPoint x="1042" y="432" />
            </Array>
          </mxGeometry>
        </mxCell>
        <mxCell id="QvKiuwDlhmeOhOTdiMVR-149" value="Branch" style="text;html=1;align=center;verticalAlign=middle;resizable=0;points=[];autosize=1;strokeColor=none;fillColor=none;" parent="1" vertex="1">
          <mxGeometry x="977" y="110" width="56" height="26" as="geometry" />
        </mxCell>
        <mxCell id="QvKiuwDlhmeOhOTdiMVR-150" value="PCAsrc" style="text;html=1;align=center;verticalAlign=middle;resizable=0;points=[];autosize=1;strokeColor=none;fillColor=none;" parent="1" vertex="1">
          <mxGeometry x="1180" y="103" width="59" height="26" as="geometry" />
        </mxCell>
        <mxCell id="QvKiuwDlhmeOhOTdiMVR-151" value="PCBsrc" style="text;html=1;align=center;verticalAlign=middle;resizable=0;points=[];autosize=1;strokeColor=none;fillColor=none;" parent="1" vertex="1">
          <mxGeometry x="1181" y="140" width="59" height="26" as="geometry" />
        </mxCell>
        <mxCell id="QvKiuwDlhmeOhOTdiMVR-152" style="edgeStyle=orthogonalEdgeStyle;rounded=0;orthogonalLoop=1;jettySize=auto;html=1;entryX=0.006;entryY=0.569;entryDx=0;entryDy=0;entryPerimeter=0;" parent="1" source="QvKiuwDlhmeOhOTdiMVR-28" target="QvKiuwDlhmeOhOTdiMVR-66" edge="1">
          <mxGeometry relative="1" as="geometry" />
        </mxCell>
        <mxCell id="QvKiuwDlhmeOhOTdiMVR-153" value="Less" style="text;html=1;align=center;verticalAlign=middle;resizable=0;points=[];autosize=1;strokeColor=none;fillColor=none;" parent="1" vertex="1">
          <mxGeometry x="941" y="378" width="43" height="26" as="geometry" />
        </mxCell>
        <mxCell id="QvKiuwDlhmeOhOTdiMVR-154" value="" style="endArrow=none;html=1;rounded=0;" parent="1" edge="1">
          <mxGeometry width="50" height="50" relative="1" as="geometry">
            <mxPoint x="1061" y="469" as="sourcePoint" />
            <mxPoint x="1078" y="451" as="targetPoint" />
          </mxGeometry>
        </mxCell>
        <mxCell id="QvKiuwDlhmeOhOTdiMVR-155" value="&lt;font style=&quot;font-size: 10px;&quot;&gt;32&lt;/font&gt;" style="text;html=1;align=center;verticalAlign=middle;resizable=0;points=[];autosize=1;strokeColor=none;fillColor=none;" parent="1" vertex="1">
          <mxGeometry x="1058" y="451" width="29" height="26" as="geometry" />
        </mxCell>
        <mxCell id="QvKiuwDlhmeOhOTdiMVR-156" value="MemtoReg" style="text;html=1;align=center;verticalAlign=middle;resizable=0;points=[];autosize=1;strokeColor=none;fillColor=none;fontColor=#CC99FF;" parent="1" vertex="1">
          <mxGeometry x="1270" y="557" width="77" height="26" as="geometry" />
        </mxCell>
        <mxCell id="QvKiuwDlhmeOhOTdiMVR-157" value="PCBsrc" style="text;html=1;align=center;verticalAlign=middle;resizable=0;points=[];autosize=1;strokeColor=none;fillColor=none;fontColor=#CC99FF;" parent="1" vertex="1">
          <mxGeometry x="750" y="147" width="59" height="26" as="geometry" />
        </mxCell>
        <mxCell id="QvKiuwDlhmeOhOTdiMVR-158" value="PCBsrc" style="text;html=1;align=center;verticalAlign=middle;resizable=0;points=[];autosize=1;strokeColor=none;fillColor=none;fontColor=#CC99FF;" parent="1" vertex="1">
          <mxGeometry x="746" y="261" width="59" height="26" as="geometry" />
        </mxCell>
        <mxCell id="QvKiuwDlhmeOhOTdiMVR-159" value="" style="endArrow=none;html=1;rounded=0;" parent="1" edge="1">
          <mxGeometry width="50" height="50" relative="1" as="geometry">
            <mxPoint x="603" y="430" as="sourcePoint" />
            <mxPoint x="620" y="412" as="targetPoint" />
          </mxGeometry>
        </mxCell>
        <mxCell id="QvKiuwDlhmeOhOTdiMVR-160" value="&lt;font style=&quot;font-size: 10px;&quot;&gt;32&lt;/font&gt;" style="text;html=1;align=center;verticalAlign=middle;resizable=0;points=[];autosize=1;strokeColor=none;fillColor=none;" parent="1" vertex="1">
          <mxGeometry x="600" y="412" width="29" height="26" as="geometry" />
        </mxCell>
        <mxCell id="QvKiuwDlhmeOhOTdiMVR-161" value="" style="endArrow=none;html=1;rounded=0;" parent="1" edge="1">
          <mxGeometry width="50" height="50" relative="1" as="geometry">
            <mxPoint x="603" y="485" as="sourcePoint" />
            <mxPoint x="620" y="467" as="targetPoint" />
          </mxGeometry>
        </mxCell>
        <mxCell id="QvKiuwDlhmeOhOTdiMVR-162" value="&lt;font style=&quot;font-size: 10px;&quot;&gt;32&lt;/font&gt;" style="text;html=1;align=center;verticalAlign=middle;resizable=0;points=[];autosize=1;strokeColor=none;fillColor=none;" parent="1" vertex="1">
          <mxGeometry x="600" y="467" width="29" height="26" as="geometry" />
        </mxCell>
        <mxCell id="QvKiuwDlhmeOhOTdiMVR-163" value="rs1" style="text;html=1;align=center;verticalAlign=middle;resizable=0;points=[];autosize=1;strokeColor=none;fillColor=none;" parent="1" vertex="1">
          <mxGeometry x="591" y="389" width="35" height="26" as="geometry" />
        </mxCell>
        <mxCell id="QvKiuwDlhmeOhOTdiMVR-164" value="rs2" style="text;html=1;align=center;verticalAlign=middle;resizable=0;points=[];autosize=1;strokeColor=none;fillColor=none;" parent="1" vertex="1">
          <mxGeometry x="591" y="445" width="35" height="26" as="geometry" />
        </mxCell>
        <mxCell id="QvKiuwDlhmeOhOTdiMVR-165" value="ALUAsrc" style="text;html=1;align=center;verticalAlign=middle;resizable=0;points=[];autosize=1;strokeColor=none;fillColor=none;fontColor=#CC99FF;" parent="1" vertex="1">
          <mxGeometry x="685" y="444" width="65" height="26" as="geometry" />
        </mxCell>
        <mxCell id="QvKiuwDlhmeOhOTdiMVR-166" value="ALUBsrc" style="text;html=1;align=center;verticalAlign=middle;resizable=0;points=[];autosize=1;strokeColor=none;fillColor=none;fontColor=#CC99FF;" parent="1" vertex="1">
          <mxGeometry x="685" y="629" width="65" height="26" as="geometry" />
        </mxCell>
        <mxCell id="QvKiuwDlhmeOhOTdiMVR-167" value="ALUctr" style="text;html=1;align=center;verticalAlign=middle;resizable=0;points=[];autosize=1;strokeColor=none;fillColor=none;fontColor=#CC99FF;" parent="1" vertex="1">
          <mxGeometry x="870" y="621" width="55" height="26" as="geometry" />
        </mxCell>
        <mxCell id="QvKiuwDlhmeOhOTdiMVR-168" value="MemOp" style="text;html=1;align=center;verticalAlign=middle;resizable=0;points=[];autosize=1;strokeColor=none;fillColor=none;fontColor=#CC99FF;" parent="1" vertex="1">
          <mxGeometry x="984" y="476" width="61" height="26" as="geometry" />
        </mxCell>
        <mxCell id="QvKiuwDlhmeOhOTdiMVR-169" value="MemWr" style="text;html=1;align=center;verticalAlign=middle;resizable=0;points=[];autosize=1;strokeColor=none;fillColor=none;fontColor=#CC99FF;" parent="1" vertex="1">
          <mxGeometry x="991" y="555" width="60" height="26" as="geometry" />
        </mxCell>
        <mxCell id="QvKiuwDlhmeOhOTdiMVR-170" style="edgeStyle=orthogonalEdgeStyle;rounded=0;orthogonalLoop=1;jettySize=auto;html=1;entryX=-0.006;entryY=0.456;entryDx=0;entryDy=0;entryPerimeter=0;" parent="1" source="QvKiuwDlhmeOhOTdiMVR-46" target="QvKiuwDlhmeOhOTdiMVR-91" edge="1">
          <mxGeometry relative="1" as="geometry">
            <Array as="points">
              <mxPoint x="1420" y="447" />
              <mxPoint x="1420" y="856" />
              <mxPoint x="315" y="856" />
              <mxPoint x="315" y="479" />
            </Array>
          </mxGeometry>
        </mxCell>
        <mxCell id="QvKiuwDlhmeOhOTdiMVR-171" value="RegWr" style="text;html=1;align=center;verticalAlign=middle;resizable=0;points=[];autosize=1;strokeColor=none;fillColor=none;fontColor=#CC99FF;" parent="1" vertex="1">
          <mxGeometry x="386" y="480" width="55" height="26" as="geometry" />
        </mxCell>
        <mxCell id="QvKiuwDlhmeOhOTdiMVR-172" value="" style="endArrow=classic;html=1;rounded=0;" parent="1" edge="1">
          <mxGeometry width="50" height="50" relative="1" as="geometry">
            <mxPoint x="591" y="710" as="sourcePoint" />
            <mxPoint x="612" y="710" as="targetPoint" />
          </mxGeometry>
        </mxCell>
        <mxCell id="QvKiuwDlhmeOhOTdiMVR-173" value="" style="endArrow=classic;html=1;rounded=0;" parent="1" edge="1">
          <mxGeometry width="50" height="50" relative="1" as="geometry">
            <mxPoint x="591.5" y="723.33" as="sourcePoint" />
            <mxPoint x="612.5" y="723.33" as="targetPoint" />
          </mxGeometry>
        </mxCell>
        <mxCell id="QvKiuwDlhmeOhOTdiMVR-174" value="" style="endArrow=classic;html=1;rounded=0;" parent="1" edge="1">
          <mxGeometry width="50" height="50" relative="1" as="geometry">
            <mxPoint x="591.5" y="734" as="sourcePoint" />
            <mxPoint x="612.5" y="734" as="targetPoint" />
          </mxGeometry>
        </mxCell>
        <mxCell id="QvKiuwDlhmeOhOTdiMVR-175" value="" style="endArrow=classic;html=1;rounded=0;" parent="1" edge="1">
          <mxGeometry width="50" height="50" relative="1" as="geometry">
            <mxPoint x="591.5" y="747" as="sourcePoint" />
            <mxPoint x="612.5" y="747" as="targetPoint" />
          </mxGeometry>
        </mxCell>
        <mxCell id="QvKiuwDlhmeOhOTdiMVR-176" value="" style="endArrow=classic;html=1;rounded=0;" parent="1" edge="1">
          <mxGeometry width="50" height="50" relative="1" as="geometry">
            <mxPoint x="591.5" y="759" as="sourcePoint" />
            <mxPoint x="612.5" y="759" as="targetPoint" />
          </mxGeometry>
        </mxCell>
        <mxCell id="QvKiuwDlhmeOhOTdiMVR-177" value="" style="endArrow=classic;html=1;rounded=0;" parent="1" edge="1">
          <mxGeometry width="50" height="50" relative="1" as="geometry">
            <mxPoint x="591.5" y="770" as="sourcePoint" />
            <mxPoint x="612.5" y="770" as="targetPoint" />
          </mxGeometry>
        </mxCell>
        <mxCell id="QvKiuwDlhmeOhOTdiMVR-178" value="" style="endArrow=classic;html=1;rounded=0;" parent="1" edge="1">
          <mxGeometry width="50" height="50" relative="1" as="geometry">
            <mxPoint x="591.5" y="781" as="sourcePoint" />
            <mxPoint x="612.5" y="781" as="targetPoint" />
          </mxGeometry>
        </mxCell>
        <mxCell id="QvKiuwDlhmeOhOTdiMVR-179" value="" style="endArrow=classic;html=1;rounded=0;" parent="1" edge="1">
          <mxGeometry width="50" height="50" relative="1" as="geometry">
            <mxPoint x="592" y="793" as="sourcePoint" />
            <mxPoint x="613" y="793" as="targetPoint" />
          </mxGeometry>
        </mxCell>
        <mxCell id="QvKiuwDlhmeOhOTdiMVR-180" value="" style="endArrow=classic;html=1;rounded=0;" parent="1" edge="1">
          <mxGeometry width="50" height="50" relative="1" as="geometry">
            <mxPoint x="592" y="805.5" as="sourcePoint" />
            <mxPoint x="613" y="805.5" as="targetPoint" />
          </mxGeometry>
        </mxCell>
        <mxCell id="QvKiuwDlhmeOhOTdiMVR-181" value="inst[6:0]" style="text;html=1;align=center;verticalAlign=middle;resizable=0;points=[];autosize=1;strokeColor=none;fillColor=none;" parent="1" vertex="1">
          <mxGeometry x="345" y="695" width="60" height="26" as="geometry" />
        </mxCell>
        <mxCell id="QvKiuwDlhmeOhOTdiMVR-182" value="inst[14:12]" style="text;html=1;align=center;verticalAlign=middle;resizable=0;points=[];autosize=1;strokeColor=none;fillColor=none;" parent="1" vertex="1">
          <mxGeometry x="339" y="729" width="73" height="26" as="geometry" />
        </mxCell>
        <mxCell id="QvKiuwDlhmeOhOTdiMVR-183" value="inst[31:25]" style="text;html=1;align=center;verticalAlign=middle;resizable=0;points=[];autosize=1;strokeColor=none;fillColor=none;" parent="1" vertex="1">
          <mxGeometry x="339" y="759" width="73" height="26" as="geometry" />
        </mxCell>
        <mxCell id="QvKiuwDlhmeOhOTdiMVR-184" value="imm" style="text;html=1;align=center;verticalAlign=middle;resizable=0;points=[];autosize=1;strokeColor=none;fillColor=none;" parent="1" vertex="1">
          <mxGeometry x="591" y="612" width="41" height="26" as="geometry" />
        </mxCell>
        <mxCell id="QvKiuwDlhmeOhOTdiMVR-185" value="CLK" style="text;html=1;align=center;verticalAlign=middle;resizable=0;points=[];autosize=1;strokeColor=none;fillColor=none;" parent="1" vertex="1">
          <mxGeometry x="8" y="410" width="41" height="26" as="geometry" />
        </mxCell>
        <mxCell id="vkxR9KCFY0yhszCb_NEq-1" value="IF1&lt;div&gt;-&lt;div&gt;IF2&lt;/div&gt;&lt;/div&gt;" style="rounded=0;whiteSpace=wrap;html=1;fillColor=#fff2cc;strokeColor=#d6b656;" vertex="1" parent="1">
          <mxGeometry x="256" y="1140" width="41" height="670" as="geometry" />
        </mxCell>
        <mxCell id="vkxR9KCFY0yhszCb_NEq-195" style="edgeStyle=orthogonalEdgeStyle;rounded=0;orthogonalLoop=1;jettySize=auto;html=1;exitX=1;exitY=0.5;exitDx=0;exitDy=0;" edge="1" parent="1">
          <mxGeometry relative="1" as="geometry">
            <mxPoint x="682" y="1464.9797570850203" as="targetPoint" />
            <mxPoint x="641" y="1465" as="sourcePoint" />
          </mxGeometry>
        </mxCell>
        <mxCell id="vkxR9KCFY0yhszCb_NEq-2" value="IF2&lt;div&gt;-&lt;/div&gt;&lt;div&gt;ID&lt;/div&gt;" style="rounded=0;whiteSpace=wrap;html=1;fillColor=#fff2cc;strokeColor=#d6b656;align=center;verticalAlign=middle;fontFamily=Helvetica;fontSize=12;fontColor=default;" vertex="1" parent="1">
          <mxGeometry x="600" y="1140" width="41" height="670" as="geometry" />
        </mxCell>
        <mxCell id="vkxR9KCFY0yhszCb_NEq-3" value="ID&lt;div&gt;-&lt;/div&gt;&lt;div&gt;EXE&lt;/div&gt;" style="rounded=0;whiteSpace=wrap;html=1;fillColor=#fff2cc;strokeColor=#d6b656;align=center;verticalAlign=middle;fontFamily=Helvetica;fontSize=12;fontColor=default;" vertex="1" parent="1">
          <mxGeometry x="1036" y="1140" width="41" height="670" as="geometry" />
        </mxCell>
        <mxCell id="vkxR9KCFY0yhszCb_NEq-4" value="EXE&lt;div&gt;-&lt;/div&gt;&lt;div&gt;MEM&lt;/div&gt;" style="rounded=0;whiteSpace=wrap;html=1;fillColor=#fff2cc;strokeColor=#d6b656;align=center;verticalAlign=middle;fontFamily=Helvetica;fontSize=12;fontColor=default;" vertex="1" parent="1">
          <mxGeometry x="1485" y="1140" width="41" height="670" as="geometry" />
        </mxCell>
        <mxCell id="vkxR9KCFY0yhszCb_NEq-5" value="MEM&lt;div&gt;-&lt;/div&gt;&lt;div&gt;WB&lt;/div&gt;" style="rounded=0;whiteSpace=wrap;html=1;fillColor=#fff2cc;strokeColor=#d6b656;align=center;verticalAlign=middle;fontFamily=Helvetica;fontSize=12;fontColor=default;" vertex="1" parent="1">
          <mxGeometry x="1777" y="1140" width="41" height="670" as="geometry" />
        </mxCell>
        <mxCell id="vkxR9KCFY0yhszCb_NEq-6" value="P&lt;div&gt;C&lt;/div&gt;" style="html=1;dashed=0;whiteSpace=wrap;fillColor=#f9f7ed;strokeColor=#36393d;" vertex="1" parent="1">
          <mxGeometry x="150" y="1598" width="30" height="60" as="geometry" />
        </mxCell>
        <mxCell id="vkxR9KCFY0yhszCb_NEq-7" value="" style="triangle;whiteSpace=wrap;html=1;dashed=0;direction=south;rotation=-180;" vertex="1" parent="1">
          <mxGeometry x="160" y="1648" width="10" height="10" as="geometry" />
        </mxCell>
        <mxCell id="vkxR9KCFY0yhszCb_NEq-180" style="edgeStyle=orthogonalEdgeStyle;rounded=0;orthogonalLoop=1;jettySize=auto;html=1;exitX=0.5;exitY=1;exitDx=0;exitDy=0;strokeColor=#b85450;align=center;verticalAlign=middle;fontFamily=Helvetica;fontSize=11;fontColor=default;labelBackgroundColor=default;startArrow=classic;startFill=1;endArrow=none;endFill=0;fillColor=#f8cecc;" edge="1" parent="1" source="vkxR9KCFY0yhszCb_NEq-8">
          <mxGeometry relative="1" as="geometry">
            <mxPoint x="165.322580645161" y="1720" as="targetPoint" />
          </mxGeometry>
        </mxCell>
        <mxCell id="vkxR9KCFY0yhszCb_NEq-8" value="" style="shape=ellipse;html=1;dashed=0;whiteSpace=wrap;aspect=fixed;perimeter=ellipsePerimeter;" vertex="1" parent="1">
          <mxGeometry x="160" y="1658" width="10" height="10" as="geometry" />
        </mxCell>
        <mxCell id="vkxR9KCFY0yhszCb_NEq-9" value="Instr&lt;div&gt;Mem&lt;/div&gt;" style="html=1;dashed=0;whiteSpace=wrap;fillColor=#d5e8d4;strokeColor=#82b366;" vertex="1" parent="1">
          <mxGeometry x="394" y="1734" width="100" height="150" as="geometry" />
        </mxCell>
        <mxCell id="vkxR9KCFY0yhszCb_NEq-10" value="" style="group;rotation=90;" vertex="1" connectable="0" parent="1">
          <mxGeometry x="384" y="1764" width="10" height="20" as="geometry" />
        </mxCell>
        <mxCell id="vkxR9KCFY0yhszCb_NEq-11" value="" style="triangle;whiteSpace=wrap;html=1;dashed=0;direction=south;rotation=-90;" vertex="1" parent="vkxR9KCFY0yhszCb_NEq-10">
          <mxGeometry x="10" y="5" width="10" height="10" as="geometry" />
        </mxCell>
        <mxCell id="vkxR9KCFY0yhszCb_NEq-12" style="edgeStyle=orthogonalEdgeStyle;rounded=0;orthogonalLoop=1;jettySize=auto;html=1;startArrow=classic;startFill=1;endArrow=none;endFill=0;fillColor=#f8cecc;strokeColor=#b85450;" edge="1" parent="vkxR9KCFY0yhszCb_NEq-10" source="vkxR9KCFY0yhszCb_NEq-13">
          <mxGeometry relative="1" as="geometry">
            <mxPoint x="-70" y="10" as="targetPoint" />
          </mxGeometry>
        </mxCell>
        <mxCell id="vkxR9KCFY0yhszCb_NEq-13" value="" style="shape=ellipse;html=1;dashed=0;whiteSpace=wrap;aspect=fixed;perimeter=ellipsePerimeter;rotation=90;" vertex="1" parent="vkxR9KCFY0yhszCb_NEq-10">
          <mxGeometry y="5" width="10" height="10" as="geometry" />
        </mxCell>
        <mxCell id="vkxR9KCFY0yhszCb_NEq-14" value="Rd" style="text;html=1;align=center;verticalAlign=middle;resizable=0;points=[];autosize=1;strokeColor=none;fillColor=none;" vertex="1" parent="1">
          <mxGeometry x="400" y="1738" width="33" height="26" as="geometry" />
        </mxCell>
        <mxCell id="vkxR9KCFY0yhszCb_NEq-15" value="clk" style="text;html=1;align=center;verticalAlign=middle;resizable=0;points=[];autosize=1;strokeColor=none;fillColor=none;" vertex="1" parent="1">
          <mxGeometry x="364" y="1744" width="33" height="26" as="geometry" />
        </mxCell>
        <mxCell id="vkxR9KCFY0yhszCb_NEq-16" value="Rd" style="text;html=1;align=center;verticalAlign=middle;resizable=0;points=[];autosize=1;strokeColor=none;fillColor=none;" vertex="1" parent="1">
          <mxGeometry x="400" y="1826" width="33" height="26" as="geometry" />
        </mxCell>
        <mxCell id="vkxR9KCFY0yhszCb_NEq-17" value="addr" style="text;html=1;align=center;verticalAlign=middle;resizable=0;points=[];autosize=1;strokeColor=none;fillColor=none;" vertex="1" parent="1">
          <mxGeometry x="396" y="1844" width="42" height="26" as="geometry" />
        </mxCell>
        <mxCell id="vkxR9KCFY0yhszCb_NEq-18" value="Instr" style="text;html=1;align=center;verticalAlign=middle;resizable=0;points=[];autosize=1;strokeColor=none;fillColor=none;" vertex="1" parent="1">
          <mxGeometry x="453" y="1796" width="41" height="26" as="geometry" />
        </mxCell>
        <mxCell id="vkxR9KCFY0yhszCb_NEq-19" value="" style="triangle;whiteSpace=wrap;html=1;rotation=-90;fillColor=#d5e8d4;strokeColor=#82b366;" vertex="1" parent="1">
          <mxGeometry x="261.75" y="1775" width="29.5" height="40" as="geometry" />
        </mxCell>
        <mxCell id="vkxR9KCFY0yhszCb_NEq-20" value="" style="triangle;whiteSpace=wrap;html=1;rotation=-90;fillColor=#d5e8d4;strokeColor=#82b366;" vertex="1" parent="1">
          <mxGeometry x="605.5" y="1775" width="29.5" height="40" as="geometry" />
        </mxCell>
        <mxCell id="vkxR9KCFY0yhszCb_NEq-21" value="" style="triangle;whiteSpace=wrap;html=1;rotation=-90;fillColor=#d5e8d4;strokeColor=#82b366;" vertex="1" parent="1">
          <mxGeometry x="1041.75" y="1775" width="29.5" height="40" as="geometry" />
        </mxCell>
        <mxCell id="vkxR9KCFY0yhszCb_NEq-23" value="" style="triangle;whiteSpace=wrap;html=1;rotation=-90;fillColor=#d5e8d4;strokeColor=#82b366;" vertex="1" parent="1">
          <mxGeometry x="1491.5" y="1775" width="29.5" height="40" as="geometry" />
        </mxCell>
        <mxCell id="vkxR9KCFY0yhszCb_NEq-27" value="" style="triangle;whiteSpace=wrap;html=1;rotation=-90;fillColor=#d5e8d4;strokeColor=#82b366;" vertex="1" parent="1">
          <mxGeometry x="1782.75" y="1775" width="29.5" height="40" as="geometry" />
        </mxCell>
        <mxCell id="vkxR9KCFY0yhszCb_NEq-28" value="" style="group" vertex="1" connectable="0" parent="1">
          <mxGeometry x="77" y="1278" width="35" height="92" as="geometry" />
        </mxCell>
        <mxCell id="vkxR9KCFY0yhszCb_NEq-29" style="edgeStyle=orthogonalEdgeStyle;rounded=0;orthogonalLoop=1;jettySize=auto;html=1;exitX=0.25;exitY=1;exitDx=0;exitDy=0;startArrow=classic;startFill=1;endArrow=none;endFill=0;" edge="1" parent="vkxR9KCFY0yhszCb_NEq-28" source="vkxR9KCFY0yhszCb_NEq-30">
          <mxGeometry relative="1" as="geometry">
            <mxPoint x="-57" y="22" as="targetPoint" />
          </mxGeometry>
        </mxCell>
        <mxCell id="vkxR9KCFY0yhszCb_NEq-190" style="edgeStyle=orthogonalEdgeStyle;rounded=0;orthogonalLoop=1;jettySize=auto;html=1;exitX=1;exitY=0.25;exitDx=0;exitDy=0;strokeColor=#FF9999;align=center;verticalAlign=middle;fontFamily=Helvetica;fontSize=11;fontColor=default;labelBackgroundColor=default;startArrow=classic;startFill=1;endArrow=none;endFill=0;fillColor=#f8cecc;" edge="1" parent="vkxR9KCFY0yhszCb_NEq-28" source="vkxR9KCFY0yhszCb_NEq-30">
          <mxGeometry relative="1" as="geometry">
            <mxPoint x="23.555555555555543" y="112" as="targetPoint" />
          </mxGeometry>
        </mxCell>
        <mxCell id="vkxR9KCFY0yhszCb_NEq-30" value="" style="shape=trapezoid;perimeter=trapezoidPerimeter;whiteSpace=wrap;html=1;fixedSize=1;size=20;rotation=90;fillColor=#e1d5e7;strokeColor=#9673a6;" vertex="1" parent="vkxR9KCFY0yhszCb_NEq-28">
          <mxGeometry x="-30.625" y="29.27272727272727" width="96.25" height="33.45454545454545" as="geometry" />
        </mxCell>
        <mxCell id="vkxR9KCFY0yhszCb_NEq-31" value="M&lt;div&gt;U&lt;/div&gt;&lt;div&gt;X&lt;/div&gt;" style="text;html=1;align=center;verticalAlign=middle;resizable=0;points=[];autosize=1;strokeColor=none;fillColor=none;" vertex="1" parent="vkxR9KCFY0yhszCb_NEq-28">
          <mxGeometry x="-0.0049999999999954525" y="15.99909090909091" width="30" height="60" as="geometry" />
        </mxCell>
        <mxCell id="vkxR9KCFY0yhszCb_NEq-32" value="" style="group" vertex="1" connectable="0" parent="1">
          <mxGeometry x="77" y="1169" width="35" height="95" as="geometry" />
        </mxCell>
        <mxCell id="vkxR9KCFY0yhszCb_NEq-189" style="edgeStyle=orthogonalEdgeStyle;rounded=0;orthogonalLoop=1;jettySize=auto;html=1;exitX=0;exitY=0.25;exitDx=0;exitDy=0;strokeColor=#FF9999;align=center;verticalAlign=middle;fontFamily=Helvetica;fontSize=11;fontColor=default;labelBackgroundColor=default;startArrow=classic;startFill=1;endArrow=none;endFill=0;fillColor=#f8cecc;" edge="1" parent="vkxR9KCFY0yhszCb_NEq-32" source="vkxR9KCFY0yhszCb_NEq-34">
          <mxGeometry relative="1" as="geometry">
            <mxPoint x="23.75" y="-29.000000000000227" as="targetPoint" />
          </mxGeometry>
        </mxCell>
        <mxCell id="vkxR9KCFY0yhszCb_NEq-34" value="" style="shape=trapezoid;perimeter=trapezoidPerimeter;whiteSpace=wrap;html=1;fixedSize=1;size=20;rotation=90;fillColor=#e1d5e7;strokeColor=#9673a6;" vertex="1" parent="vkxR9KCFY0yhszCb_NEq-32">
          <mxGeometry x="-30.625000000000004" y="30.227272727272727" width="96.25000000000001" height="34.54545454545455" as="geometry" />
        </mxCell>
        <mxCell id="vkxR9KCFY0yhszCb_NEq-35" value="M&lt;div&gt;U&lt;/div&gt;&lt;div&gt;X&lt;/div&gt;" style="text;html=1;align=center;verticalAlign=middle;resizable=0;points=[];autosize=1;strokeColor=none;fillColor=none;" vertex="1" parent="vkxR9KCFY0yhszCb_NEq-32">
          <mxGeometry x="4.375" y="21.590909090909093" width="30" height="60" as="geometry" />
        </mxCell>
        <mxCell id="vkxR9KCFY0yhszCb_NEq-36" value="" style="group" vertex="1" connectable="0" parent="1">
          <mxGeometry x="161" y="1204" width="60" height="144" as="geometry" />
        </mxCell>
        <mxCell id="vkxR9KCFY0yhszCb_NEq-37" value="" style="shape=trapezoid;perimeter=trapezoidPerimeter;whiteSpace=wrap;html=1;fixedSize=1;rotation=90;size=33.55172413793116;" vertex="1" parent="vkxR9KCFY0yhszCb_NEq-36">
          <mxGeometry x="-32.727272727272734" y="42" width="130.90909090909093" height="60" as="geometry" />
        </mxCell>
        <mxCell id="vkxR9KCFY0yhszCb_NEq-38" value="" style="rounded=0;whiteSpace=wrap;html=1;strokeColor=#FFFFFF;" vertex="1" parent="vkxR9KCFY0yhszCb_NEq-36">
          <mxGeometry y="50" width="13.95" height="44" as="geometry" />
        </mxCell>
        <mxCell id="vkxR9KCFY0yhszCb_NEq-39" value="" style="endArrow=none;html=1;rounded=0;exitX=0.674;exitY=1.002;exitDx=0;exitDy=0;exitPerimeter=0;" edge="1" parent="vkxR9KCFY0yhszCb_NEq-36" source="vkxR9KCFY0yhszCb_NEq-37">
          <mxGeometry width="50" height="50" relative="1" as="geometry">
            <mxPoint x="5.389090909090845" y="95.99999999999999" as="sourcePoint" />
            <mxPoint x="38.18181818181818" y="70.8" as="targetPoint" />
          </mxGeometry>
        </mxCell>
        <mxCell id="vkxR9KCFY0yhszCb_NEq-40" value="" style="endArrow=none;html=1;rounded=0;exitX=0.325;exitY=1.004;exitDx=0;exitDy=0;exitPerimeter=0;" edge="1" parent="vkxR9KCFY0yhszCb_NEq-36" source="vkxR9KCFY0yhszCb_NEq-37">
          <mxGeometry width="50" height="50" relative="1" as="geometry">
            <mxPoint x="5.454545454545454" y="46.8" as="sourcePoint" />
            <mxPoint x="38.18181818181818" y="70.8" as="targetPoint" />
            <Array as="points">
              <mxPoint x="38.18181818181818" y="70.8" />
            </Array>
          </mxGeometry>
        </mxCell>
        <mxCell id="vkxR9KCFY0yhszCb_NEq-45" style="edgeStyle=orthogonalEdgeStyle;rounded=0;orthogonalLoop=1;jettySize=auto;html=1;entryX=0.17;entryY=0.985;entryDx=0;entryDy=0;entryPerimeter=0;" edge="1" parent="1" source="vkxR9KCFY0yhszCb_NEq-35" target="vkxR9KCFY0yhszCb_NEq-37">
          <mxGeometry relative="1" as="geometry" />
        </mxCell>
        <mxCell id="vkxR9KCFY0yhszCb_NEq-46" style="edgeStyle=orthogonalEdgeStyle;rounded=0;orthogonalLoop=1;jettySize=auto;html=1;entryX=0.862;entryY=1.001;entryDx=0;entryDy=0;entryPerimeter=0;" edge="1" parent="1" source="vkxR9KCFY0yhszCb_NEq-30" target="vkxR9KCFY0yhszCb_NEq-37">
          <mxGeometry relative="1" as="geometry" />
        </mxCell>
        <mxCell id="vkxR9KCFY0yhszCb_NEq-47" value="4" style="text;html=1;align=center;verticalAlign=middle;resizable=0;points=[];autosize=1;strokeColor=none;fillColor=none;" vertex="1" parent="1">
          <mxGeometry x="32" y="1157" width="25" height="26" as="geometry" />
        </mxCell>
        <mxCell id="vkxR9KCFY0yhszCb_NEq-48" value="&lt;font style=&quot;font-size: 18px;&quot;&gt;imm&lt;/font&gt;" style="text;html=1;align=center;verticalAlign=middle;resizable=0;points=[];autosize=1;strokeColor=none;fillColor=none;" vertex="1" parent="1">
          <mxGeometry x="18.5" y="1199.5" width="52" height="34" as="geometry" />
        </mxCell>
        <mxCell id="vkxR9KCFY0yhszCb_NEq-52" value="PCBsrc" style="text;html=1;align=center;verticalAlign=middle;resizable=0;points=[];autosize=1;strokeColor=none;fillColor=none;fontColor=#CC99FF;" vertex="1" parent="1">
          <mxGeometry x="36" y="1144" width="59" height="26" as="geometry" />
        </mxCell>
        <mxCell id="vkxR9KCFY0yhszCb_NEq-53" value="PCBsrc" style="text;html=1;align=center;verticalAlign=middle;resizable=0;points=[];autosize=1;strokeColor=none;fillColor=none;fontColor=#CC99FF;" vertex="1" parent="1">
          <mxGeometry x="36" y="1373" width="59" height="26" as="geometry" />
        </mxCell>
        <mxCell id="vkxR9KCFY0yhszCb_NEq-54" style="edgeStyle=orthogonalEdgeStyle;rounded=0;orthogonalLoop=1;jettySize=auto;html=1;exitX=0;exitY=0.25;exitDx=0;exitDy=0;startArrow=classic;startFill=1;endArrow=none;endFill=0;" edge="1" parent="1" source="vkxR9KCFY0yhszCb_NEq-57">
          <mxGeometry relative="1" as="geometry">
            <mxPoint x="732.739090909091" y="1203.969696969697" as="targetPoint" />
          </mxGeometry>
        </mxCell>
        <mxCell id="vkxR9KCFY0yhszCb_NEq-55" style="edgeStyle=orthogonalEdgeStyle;rounded=0;orthogonalLoop=1;jettySize=auto;html=1;exitX=1;exitY=0.25;exitDx=0;exitDy=0;" edge="1" parent="1">
          <mxGeometry relative="1" as="geometry">
            <mxPoint x="966.466363636364" y="1203.969696969697" as="targetPoint" />
            <mxPoint x="900.83" y="1204" as="sourcePoint" />
          </mxGeometry>
        </mxCell>
        <mxCell id="vkxR9KCFY0yhszCb_NEq-56" style="edgeStyle=orthogonalEdgeStyle;rounded=0;orthogonalLoop=1;jettySize=auto;html=1;exitX=1;exitY=0.75;exitDx=0;exitDy=0;" edge="1" parent="1">
          <mxGeometry relative="1" as="geometry">
            <mxPoint x="966.466363636364" y="1234.2727272727275" as="targetPoint" />
            <mxPoint x="900.83" y="1234" as="sourcePoint" />
          </mxGeometry>
        </mxCell>
        <mxCell id="vkxR9KCFY0yhszCb_NEq-57" value="Branch&lt;div&gt;Cond&lt;/div&gt;" style="html=1;dashed=0;whiteSpace=wrap;fillColor=#bac8d3;strokeColor=#23445d;" vertex="1" parent="1">
          <mxGeometry x="799.83" y="1189" width="100" height="60" as="geometry" />
        </mxCell>
        <mxCell id="vkxR9KCFY0yhszCb_NEq-58" value="Branch" style="text;html=1;align=center;verticalAlign=middle;resizable=0;points=[];autosize=1;strokeColor=none;fillColor=none;" vertex="1" parent="1">
          <mxGeometry x="741.33" y="1179.5" width="56" height="26" as="geometry" />
        </mxCell>
        <mxCell id="vkxR9KCFY0yhszCb_NEq-59" value="PCAsrc" style="text;html=1;align=center;verticalAlign=middle;resizable=0;points=[];autosize=1;strokeColor=none;fillColor=none;" vertex="1" parent="1">
          <mxGeometry x="899.83" y="1177" width="59" height="26" as="geometry" />
        </mxCell>
        <mxCell id="vkxR9KCFY0yhszCb_NEq-60" value="PCBsrc" style="text;html=1;align=center;verticalAlign=middle;resizable=0;points=[];autosize=1;strokeColor=none;fillColor=none;" vertex="1" parent="1">
          <mxGeometry x="900.83" y="1207" width="59" height="26" as="geometry" />
        </mxCell>
        <mxCell id="vkxR9KCFY0yhszCb_NEq-61" style="edgeStyle=orthogonalEdgeStyle;rounded=0;orthogonalLoop=1;jettySize=auto;html=1;entryX=-0.016;entryY=0.868;entryDx=0;entryDy=0;entryPerimeter=0;" edge="1" parent="1" source="vkxR9KCFY0yhszCb_NEq-9" target="vkxR9KCFY0yhszCb_NEq-2">
          <mxGeometry relative="1" as="geometry" />
        </mxCell>
        <mxCell id="vkxR9KCFY0yhszCb_NEq-62" value="Reg&lt;div&gt;File&lt;/div&gt;" style="html=1;dashed=0;whiteSpace=wrap;fillColor=#dae8fc;strokeColor=#6c8ebf;" vertex="1" parent="1">
          <mxGeometry x="836.83" y="1343" width="100" height="150" as="geometry" />
        </mxCell>
        <mxCell id="vkxR9KCFY0yhszCb_NEq-63" value="" style="triangle;whiteSpace=wrap;html=1;dashed=0;direction=south;rotation=-180;" vertex="1" parent="1">
          <mxGeometry x="881.83" y="1483" width="10" height="10" as="geometry" />
        </mxCell>
        <mxCell id="vkxR9KCFY0yhszCb_NEq-181" style="edgeStyle=orthogonalEdgeStyle;rounded=0;orthogonalLoop=1;jettySize=auto;html=1;exitX=0.5;exitY=1;exitDx=0;exitDy=0;strokeColor=#b85450;align=center;verticalAlign=middle;fontFamily=Helvetica;fontSize=11;fontColor=default;labelBackgroundColor=default;startArrow=classic;startFill=1;endArrow=none;endFill=0;fillColor=#f8cecc;" edge="1" parent="1" source="vkxR9KCFY0yhszCb_NEq-64">
          <mxGeometry relative="1" as="geometry">
            <mxPoint x="886.6129032258063" y="1540" as="targetPoint" />
          </mxGeometry>
        </mxCell>
        <mxCell id="vkxR9KCFY0yhszCb_NEq-64" value="" style="shape=ellipse;html=1;dashed=0;whiteSpace=wrap;aspect=fixed;perimeter=ellipsePerimeter;rotation=0;" vertex="1" parent="1">
          <mxGeometry x="881.83" y="1493" width="10" height="10" as="geometry" />
        </mxCell>
        <mxCell id="vkxR9KCFY0yhszCb_NEq-65" style="edgeStyle=orthogonalEdgeStyle;rounded=0;orthogonalLoop=1;jettySize=auto;html=1;exitX=0;exitY=0.25;exitDx=0;exitDy=0;startArrow=classic;startFill=1;endArrow=none;endFill=0;" edge="1" parent="1" source="vkxR9KCFY0yhszCb_NEq-67">
          <mxGeometry relative="1" as="geometry">
            <mxPoint x="681.9966666666668" y="1403.8333333333335" as="targetPoint" />
          </mxGeometry>
        </mxCell>
        <mxCell id="vkxR9KCFY0yhszCb_NEq-66" style="edgeStyle=orthogonalEdgeStyle;rounded=0;orthogonalLoop=1;jettySize=auto;html=1;exitX=0;exitY=0.75;exitDx=0;exitDy=0;startArrow=classic;startFill=1;endArrow=none;endFill=0;" edge="1" parent="1" source="vkxR9KCFY0yhszCb_NEq-67">
          <mxGeometry relative="1" as="geometry">
            <mxPoint x="769.08" y="1630.0833333333335" as="targetPoint" />
          </mxGeometry>
        </mxCell>
        <mxCell id="vkxR9KCFY0yhszCb_NEq-67" value="&lt;font style=&quot;font-size: 14px;&quot;&gt;Imm&lt;/font&gt;&lt;div&gt;&lt;font size=&quot;3&quot;&gt;Gen&lt;/font&gt;&lt;/div&gt;" style="html=1;dashed=0;whiteSpace=wrap;fillColor=#bac8d3;strokeColor=#23445d;" vertex="1" parent="1">
          <mxGeometry x="836.83" y="1585" width="100" height="60" as="geometry" />
        </mxCell>
        <mxCell id="vkxR9KCFY0yhszCb_NEq-68" value="" style="html=1;dashed=0;whiteSpace=wrap;fillColor=#bac8d3;strokeColor=#23445d;" vertex="1" parent="1">
          <mxGeometry x="836.83" y="1679" width="100" height="103" as="geometry" />
        </mxCell>
        <mxCell id="vkxR9KCFY0yhszCb_NEq-69" style="edgeStyle=orthogonalEdgeStyle;rounded=0;orthogonalLoop=1;jettySize=auto;html=1;startArrow=classic;startFill=1;endArrow=none;endFill=0;" edge="1" parent="1" source="vkxR9KCFY0yhszCb_NEq-70">
          <mxGeometry relative="1" as="geometry">
            <mxPoint x="681.9966666666668" y="1418.8333333333335" as="targetPoint" />
          </mxGeometry>
        </mxCell>
        <mxCell id="vkxR9KCFY0yhszCb_NEq-70" value="Ra" style="text;html=1;align=center;verticalAlign=middle;resizable=0;points=[];autosize=1;strokeColor=none;fillColor=none;" vertex="1" parent="1">
          <mxGeometry x="836.83" y="1347" width="33" height="26" as="geometry" />
        </mxCell>
        <mxCell id="vkxR9KCFY0yhszCb_NEq-71" style="edgeStyle=orthogonalEdgeStyle;rounded=0;orthogonalLoop=1;jettySize=auto;html=1;startArrow=classic;startFill=1;endArrow=none;endFill=0;" edge="1" parent="1" source="vkxR9KCFY0yhszCb_NEq-72">
          <mxGeometry relative="1" as="geometry">
            <mxPoint x="682.83" y="1386" as="targetPoint" />
          </mxGeometry>
        </mxCell>
        <mxCell id="vkxR9KCFY0yhszCb_NEq-72" value="Rb" style="text;html=1;align=center;verticalAlign=middle;resizable=0;points=[];autosize=1;strokeColor=none;fillColor=none;" vertex="1" parent="1">
          <mxGeometry x="836.83" y="1373" width="33" height="26" as="geometry" />
        </mxCell>
        <mxCell id="vkxR9KCFY0yhszCb_NEq-73" value="Rw" style="text;html=1;align=center;verticalAlign=middle;resizable=0;points=[];autosize=1;strokeColor=none;fillColor=none;" vertex="1" parent="1">
          <mxGeometry x="836.83" y="1407" width="35" height="26" as="geometry" />
        </mxCell>
        <mxCell id="vkxR9KCFY0yhszCb_NEq-74" value="busW" style="text;html=1;align=center;verticalAlign=middle;resizable=0;points=[];autosize=1;strokeColor=none;fillColor=none;" vertex="1" parent="1">
          <mxGeometry x="836.83" y="1440" width="49" height="26" as="geometry" />
        </mxCell>
        <mxCell id="vkxR9KCFY0yhszCb_NEq-75" style="edgeStyle=orthogonalEdgeStyle;rounded=0;orthogonalLoop=1;jettySize=auto;html=1;startArrow=classic;startFill=1;endArrow=none;endFill=0;" edge="1" parent="1" source="vkxR9KCFY0yhszCb_NEq-76">
          <mxGeometry relative="1" as="geometry">
            <mxPoint x="773.6633333333335" y="1474" as="targetPoint" />
          </mxGeometry>
        </mxCell>
        <mxCell id="vkxR9KCFY0yhszCb_NEq-76" value="RegWr" style="text;html=1;align=center;verticalAlign=middle;resizable=0;points=[];autosize=1;strokeColor=none;fillColor=none;" vertex="1" parent="1">
          <mxGeometry x="836.83" y="1461" width="55" height="26" as="geometry" />
        </mxCell>
        <mxCell id="vkxR9KCFY0yhszCb_NEq-77" value="Wr" style="text;html=1;align=center;verticalAlign=middle;resizable=0;points=[];autosize=1;strokeColor=none;fillColor=none;" vertex="1" parent="1">
          <mxGeometry x="889.83" y="1453" width="33" height="26" as="geometry" />
        </mxCell>
        <mxCell id="vkxR9KCFY0yhszCb_NEq-78" value="Clk" style="text;html=1;align=center;verticalAlign=middle;resizable=0;points=[];autosize=1;strokeColor=none;fillColor=none;" vertex="1" parent="1">
          <mxGeometry x="888.83" y="1473" width="35" height="26" as="geometry" />
        </mxCell>
        <mxCell id="vkxR9KCFY0yhszCb_NEq-79" value="busB" style="text;html=1;align=center;verticalAlign=middle;resizable=0;points=[];autosize=1;strokeColor=none;fillColor=none;" vertex="1" parent="1">
          <mxGeometry x="892.33" y="1435.5" width="45" height="26" as="geometry" />
        </mxCell>
        <mxCell id="vkxR9KCFY0yhszCb_NEq-80" value="busA" style="text;html=1;align=center;verticalAlign=middle;resizable=0;points=[];autosize=1;strokeColor=none;fillColor=none;" vertex="1" parent="1">
          <mxGeometry x="891.83" y="1381" width="45" height="26" as="geometry" />
        </mxCell>
        <mxCell id="vkxR9KCFY0yhszCb_NEq-81" style="edgeStyle=orthogonalEdgeStyle;rounded=0;orthogonalLoop=1;jettySize=auto;html=1;startArrow=classic;startFill=1;endArrow=none;endFill=0;" edge="1" parent="1" source="vkxR9KCFY0yhszCb_NEq-82">
          <mxGeometry relative="1" as="geometry">
            <mxPoint x="682.4966666666668" y="1580.3333333333335" as="targetPoint" />
          </mxGeometry>
        </mxCell>
        <mxCell id="vkxR9KCFY0yhszCb_NEq-82" value="&lt;font style=&quot;font-size: 14px;&quot;&gt;op&lt;/font&gt;" style="text;html=1;align=center;verticalAlign=middle;resizable=0;points=[];autosize=1;strokeColor=none;fillColor=none;" vertex="1" parent="1">
          <mxGeometry x="836.83" y="1681" width="34" height="29" as="geometry" />
        </mxCell>
        <mxCell id="vkxR9KCFY0yhszCb_NEq-83" style="edgeStyle=orthogonalEdgeStyle;rounded=0;orthogonalLoop=1;jettySize=auto;html=1;startArrow=classic;startFill=1;endArrow=none;endFill=0;" edge="1" parent="1" source="vkxR9KCFY0yhszCb_NEq-84">
          <mxGeometry relative="1" as="geometry">
            <mxPoint x="682.83" y="1652.3333333333335" as="targetPoint" />
          </mxGeometry>
        </mxCell>
        <mxCell id="vkxR9KCFY0yhszCb_NEq-84" value="&lt;font style=&quot;font-size: 14px;&quot;&gt;func3&lt;/font&gt;" style="text;html=1;align=center;verticalAlign=middle;resizable=0;points=[];autosize=1;strokeColor=none;fillColor=none;" vertex="1" parent="1">
          <mxGeometry x="836.83" y="1715.5" width="52" height="29" as="geometry" />
        </mxCell>
        <mxCell id="vkxR9KCFY0yhszCb_NEq-85" style="edgeStyle=orthogonalEdgeStyle;rounded=0;orthogonalLoop=1;jettySize=auto;html=1;startArrow=classic;startFill=1;endArrow=none;endFill=0;" edge="1" parent="1" source="vkxR9KCFY0yhszCb_NEq-86">
          <mxGeometry relative="1" as="geometry">
            <mxPoint x="683.1633333333333" y="1701" as="targetPoint" />
          </mxGeometry>
        </mxCell>
        <mxCell id="vkxR9KCFY0yhszCb_NEq-86" value="&lt;font style=&quot;font-size: 14px;&quot;&gt;func7&lt;/font&gt;" style="text;html=1;align=center;verticalAlign=middle;resizable=0;points=[];autosize=1;strokeColor=none;fillColor=none;" vertex="1" parent="1">
          <mxGeometry x="836.83" y="1748" width="52" height="29" as="geometry" />
        </mxCell>
        <mxCell id="vkxR9KCFY0yhszCb_NEq-87" value="&lt;font style=&quot;font-size: 8px;&quot;&gt;ExtOp&lt;/font&gt;" style="text;html=1;align=center;verticalAlign=middle;resizable=0;points=[];autosize=1;strokeColor=none;fillColor=none;fontColor=#CC99FF;" vertex="1" parent="1">
          <mxGeometry x="959.8299999999999" y="1668" width="40" height="26" as="geometry" />
        </mxCell>
        <mxCell id="vkxR9KCFY0yhszCb_NEq-88" value="&lt;font style=&quot;font-size: 8px;&quot;&gt;RegWr&lt;/font&gt;" style="text;html=1;align=center;verticalAlign=middle;resizable=0;points=[];autosize=1;strokeColor=none;fillColor=none;fontColor=#CC99FF;" vertex="1" parent="1">
          <mxGeometry x="958.3299999999999" y="1681" width="43" height="26" as="geometry" />
        </mxCell>
        <mxCell id="vkxR9KCFY0yhszCb_NEq-89" value="&lt;font style=&quot;font-size: 8px;&quot;&gt;ALUAsrc&lt;/font&gt;" style="text;html=1;align=center;verticalAlign=middle;resizable=0;points=[];autosize=1;strokeColor=none;fillColor=none;fontColor=#CC99FF;" vertex="1" parent="1">
          <mxGeometry x="955.3299999999999" y="1694" width="50" height="26" as="geometry" />
        </mxCell>
        <mxCell id="vkxR9KCFY0yhszCb_NEq-90" value="&lt;font style=&quot;font-size: 8px;&quot;&gt;ALUBsrc&lt;/font&gt;" style="text;html=1;align=center;verticalAlign=middle;resizable=0;points=[];autosize=1;strokeColor=none;fillColor=none;fontColor=#CC99FF;" vertex="1" parent="1">
          <mxGeometry x="955.3299999999999" y="1705" width="50" height="26" as="geometry" />
        </mxCell>
        <mxCell id="vkxR9KCFY0yhszCb_NEq-91" value="&lt;font style=&quot;font-size: 8px;&quot;&gt;ALUCtr&lt;/font&gt;" style="text;html=1;align=center;verticalAlign=middle;resizable=0;points=[];autosize=1;strokeColor=none;fillColor=none;fontColor=#CC99FF;" vertex="1" parent="1">
          <mxGeometry x="958.3299999999999" y="1717" width="44" height="26" as="geometry" />
        </mxCell>
        <mxCell id="vkxR9KCFY0yhszCb_NEq-92" value="&lt;font style=&quot;font-size: 8px;&quot;&gt;Branch&lt;/font&gt;" style="text;html=1;align=center;verticalAlign=middle;resizable=0;points=[];autosize=1;strokeColor=none;fillColor=none;fontColor=#CC99FF;" vertex="1" parent="1">
          <mxGeometry x="958.8299999999999" y="1728" width="43" height="26" as="geometry" />
        </mxCell>
        <mxCell id="vkxR9KCFY0yhszCb_NEq-93" value="&lt;font style=&quot;font-size: 8px;&quot;&gt;MemtoReg&lt;/font&gt;" style="text;html=1;align=center;verticalAlign=middle;resizable=0;points=[];autosize=1;strokeColor=none;fillColor=none;fontColor=#CC99FF;" vertex="1" parent="1">
          <mxGeometry x="951.3299999999999" y="1740" width="57" height="26" as="geometry" />
        </mxCell>
        <mxCell id="vkxR9KCFY0yhszCb_NEq-94" value="&lt;font style=&quot;font-size: 8px;&quot;&gt;MemWr&lt;/font&gt;" style="text;html=1;align=center;verticalAlign=middle;resizable=0;points=[];autosize=1;strokeColor=none;fillColor=none;fontColor=#CC99FF;" vertex="1" parent="1">
          <mxGeometry x="957.8299999999999" y="1751" width="46" height="26" as="geometry" />
        </mxCell>
        <mxCell id="vkxR9KCFY0yhszCb_NEq-95" value="&lt;font style=&quot;font-size: 8px;&quot;&gt;MemOp&lt;/font&gt;" style="text;html=1;align=center;verticalAlign=middle;resizable=0;points=[];autosize=1;strokeColor=none;fillColor=none;fontColor=#CC99FF;" vertex="1" parent="1">
          <mxGeometry x="958.8299999999999" y="1763" width="46" height="26" as="geometry" />
        </mxCell>
        <mxCell id="vkxR9KCFY0yhszCb_NEq-96" value="&lt;font style=&quot;text-wrap-mode: wrap; font-size: 18px;&quot;&gt;Contr&lt;/font&gt;&lt;div style=&quot;text-wrap-mode: wrap;&quot;&gt;&lt;font size=&quot;3&quot;&gt;Gen&lt;/font&gt;&lt;/div&gt;" style="text;html=1;align=center;verticalAlign=middle;resizable=0;points=[];autosize=1;strokeColor=none;fillColor=none;" vertex="1" parent="1">
          <mxGeometry x="869.83" y="1679" width="62" height="53" as="geometry" />
        </mxCell>
        <mxCell id="vkxR9KCFY0yhszCb_NEq-97" value="ExtOp" style="text;html=1;align=center;verticalAlign=middle;resizable=0;points=[];autosize=1;strokeColor=none;fillColor=none;fontColor=#CC99FF;" vertex="1" parent="1">
          <mxGeometry x="771.83" y="1602" width="51" height="26" as="geometry" />
        </mxCell>
        <mxCell id="vkxR9KCFY0yhszCb_NEq-98" value="inst[31:7]" style="text;html=1;align=center;verticalAlign=middle;resizable=0;points=[];autosize=1;strokeColor=none;fillColor=none;" vertex="1" parent="1">
          <mxGeometry x="687.83" y="1568" width="67" height="26" as="geometry" />
        </mxCell>
        <mxCell id="vkxR9KCFY0yhszCb_NEq-99" value="inst[19:15]" style="text;html=1;align=center;verticalAlign=middle;resizable=0;points=[];autosize=1;strokeColor=none;fillColor=none;" vertex="1" parent="1">
          <mxGeometry x="693.83" y="1330" width="73" height="26" as="geometry" />
        </mxCell>
        <mxCell id="vkxR9KCFY0yhszCb_NEq-100" value="inst[24:20]" style="text;html=1;align=center;verticalAlign=middle;resizable=0;points=[];autosize=1;strokeColor=none;fillColor=none;" vertex="1" parent="1">
          <mxGeometry x="693.83" y="1359" width="73" height="26" as="geometry" />
        </mxCell>
        <mxCell id="vkxR9KCFY0yhszCb_NEq-101" value="inst[11: 7]" style="text;html=1;align=center;verticalAlign=middle;resizable=0;points=[];autosize=1;strokeColor=none;fillColor=none;" vertex="1" parent="1">
          <mxGeometry x="695.83" y="1391" width="69" height="26" as="geometry" />
        </mxCell>
        <mxCell id="vkxR9KCFY0yhszCb_NEq-102" value="" style="endArrow=none;html=1;rounded=0;" edge="1" parent="1">
          <mxGeometry width="50" height="50" relative="1" as="geometry">
            <mxPoint x="774.83" y="1368" as="sourcePoint" />
            <mxPoint x="791.83" y="1350" as="targetPoint" />
          </mxGeometry>
        </mxCell>
        <mxCell id="vkxR9KCFY0yhszCb_NEq-103" value="&lt;font style=&quot;font-size: 10px;&quot;&gt;5&lt;/font&gt;" style="text;html=1;align=center;verticalAlign=middle;resizable=0;points=[];autosize=1;strokeColor=none;fillColor=none;" vertex="1" parent="1">
          <mxGeometry x="773.33" y="1353" width="24" height="26" as="geometry" />
        </mxCell>
        <mxCell id="vkxR9KCFY0yhszCb_NEq-104" value="" style="endArrow=none;html=1;rounded=0;" edge="1" parent="1">
          <mxGeometry width="50" height="50" relative="1" as="geometry">
            <mxPoint x="774.83" y="1394" as="sourcePoint" />
            <mxPoint x="791.83" y="1376" as="targetPoint" />
          </mxGeometry>
        </mxCell>
        <mxCell id="vkxR9KCFY0yhszCb_NEq-105" value="&lt;font style=&quot;font-size: 10px;&quot;&gt;5&lt;/font&gt;" style="text;html=1;align=center;verticalAlign=middle;resizable=0;points=[];autosize=1;strokeColor=none;fillColor=none;" vertex="1" parent="1">
          <mxGeometry x="773.33" y="1379" width="24" height="26" as="geometry" />
        </mxCell>
        <mxCell id="vkxR9KCFY0yhszCb_NEq-106" value="" style="endArrow=none;html=1;rounded=0;" edge="1" parent="1">
          <mxGeometry width="50" height="50" relative="1" as="geometry">
            <mxPoint x="774.83" y="1427" as="sourcePoint" />
            <mxPoint x="791.83" y="1409" as="targetPoint" />
          </mxGeometry>
        </mxCell>
        <mxCell id="vkxR9KCFY0yhszCb_NEq-107" value="&lt;font style=&quot;font-size: 10px;&quot;&gt;5&lt;/font&gt;" style="text;html=1;align=center;verticalAlign=middle;resizable=0;points=[];autosize=1;strokeColor=none;fillColor=none;" vertex="1" parent="1">
          <mxGeometry x="773.83" y="1409" width="24" height="26" as="geometry" />
        </mxCell>
        <mxCell id="vkxR9KCFY0yhszCb_NEq-109" value="" style="endArrow=none;html=1;rounded=0;" edge="1" parent="1">
          <mxGeometry width="50" height="50" relative="1" as="geometry">
            <mxPoint x="948.8299999999999" y="1625" as="sourcePoint" />
            <mxPoint x="965.8299999999999" y="1607" as="targetPoint" />
          </mxGeometry>
        </mxCell>
        <mxCell id="vkxR9KCFY0yhszCb_NEq-110" value="&lt;font style=&quot;font-size: 10px;&quot;&gt;32&lt;/font&gt;" style="text;html=1;align=center;verticalAlign=middle;resizable=0;points=[];autosize=1;strokeColor=none;fillColor=none;" vertex="1" parent="1">
          <mxGeometry x="945.8299999999999" y="1607" width="29" height="26" as="geometry" />
        </mxCell>
        <mxCell id="vkxR9KCFY0yhszCb_NEq-111" value="" style="endArrow=none;html=1;rounded=0;" edge="1" parent="1">
          <mxGeometry width="50" height="50" relative="1" as="geometry">
            <mxPoint x="948.8299999999999" y="1403" as="sourcePoint" />
            <mxPoint x="965.8299999999999" y="1385" as="targetPoint" />
          </mxGeometry>
        </mxCell>
        <mxCell id="vkxR9KCFY0yhszCb_NEq-112" value="&lt;font style=&quot;font-size: 10px;&quot;&gt;32&lt;/font&gt;" style="text;html=1;align=center;verticalAlign=middle;resizable=0;points=[];autosize=1;strokeColor=none;fillColor=none;" vertex="1" parent="1">
          <mxGeometry x="945.8299999999999" y="1385" width="29" height="26" as="geometry" />
        </mxCell>
        <mxCell id="vkxR9KCFY0yhszCb_NEq-113" value="" style="endArrow=none;html=1;rounded=0;" edge="1" parent="1">
          <mxGeometry width="50" height="50" relative="1" as="geometry">
            <mxPoint x="948.8299999999999" y="1458" as="sourcePoint" />
            <mxPoint x="965.8299999999999" y="1440" as="targetPoint" />
          </mxGeometry>
        </mxCell>
        <mxCell id="vkxR9KCFY0yhszCb_NEq-114" value="&lt;font style=&quot;font-size: 10px;&quot;&gt;32&lt;/font&gt;" style="text;html=1;align=center;verticalAlign=middle;resizable=0;points=[];autosize=1;strokeColor=none;fillColor=none;" vertex="1" parent="1">
          <mxGeometry x="945.8299999999999" y="1440" width="29" height="26" as="geometry" />
        </mxCell>
        <mxCell id="vkxR9KCFY0yhszCb_NEq-115" value="rs1" style="text;html=1;align=center;verticalAlign=middle;resizable=0;points=[];autosize=1;strokeColor=none;fillColor=none;" vertex="1" parent="1">
          <mxGeometry x="936.8299999999999" y="1362" width="35" height="26" as="geometry" />
        </mxCell>
        <mxCell id="vkxR9KCFY0yhszCb_NEq-116" value="rs2" style="text;html=1;align=center;verticalAlign=middle;resizable=0;points=[];autosize=1;strokeColor=none;fillColor=none;" vertex="1" parent="1">
          <mxGeometry x="936.8299999999999" y="1418" width="35" height="26" as="geometry" />
        </mxCell>
        <mxCell id="vkxR9KCFY0yhszCb_NEq-117" value="RegWr" style="text;html=1;align=center;verticalAlign=middle;resizable=0;points=[];autosize=1;strokeColor=none;fillColor=none;fontColor=#CC99FF;" vertex="1" parent="1">
          <mxGeometry x="732.83" y="1453" width="55" height="26" as="geometry" />
        </mxCell>
        <mxCell id="vkxR9KCFY0yhszCb_NEq-118" value="" style="endArrow=classic;html=1;rounded=0;" edge="1" parent="1">
          <mxGeometry width="50" height="50" relative="1" as="geometry">
            <mxPoint x="936.8299999999999" y="1683" as="sourcePoint" />
            <mxPoint x="957.8299999999999" y="1683" as="targetPoint" />
          </mxGeometry>
        </mxCell>
        <mxCell id="vkxR9KCFY0yhszCb_NEq-119" value="" style="endArrow=classic;html=1;rounded=0;" edge="1" parent="1">
          <mxGeometry width="50" height="50" relative="1" as="geometry">
            <mxPoint x="937.3299999999999" y="1696.33" as="sourcePoint" />
            <mxPoint x="958.3299999999999" y="1696.33" as="targetPoint" />
          </mxGeometry>
        </mxCell>
        <mxCell id="vkxR9KCFY0yhszCb_NEq-120" value="" style="endArrow=classic;html=1;rounded=0;" edge="1" parent="1">
          <mxGeometry width="50" height="50" relative="1" as="geometry">
            <mxPoint x="937.3299999999999" y="1707" as="sourcePoint" />
            <mxPoint x="958.3299999999999" y="1707" as="targetPoint" />
          </mxGeometry>
        </mxCell>
        <mxCell id="vkxR9KCFY0yhszCb_NEq-121" value="" style="endArrow=classic;html=1;rounded=0;" edge="1" parent="1">
          <mxGeometry width="50" height="50" relative="1" as="geometry">
            <mxPoint x="937.3299999999999" y="1720" as="sourcePoint" />
            <mxPoint x="958.3299999999999" y="1720" as="targetPoint" />
          </mxGeometry>
        </mxCell>
        <mxCell id="vkxR9KCFY0yhszCb_NEq-122" value="" style="endArrow=classic;html=1;rounded=0;" edge="1" parent="1">
          <mxGeometry width="50" height="50" relative="1" as="geometry">
            <mxPoint x="937.3299999999999" y="1732" as="sourcePoint" />
            <mxPoint x="958.3299999999999" y="1732" as="targetPoint" />
          </mxGeometry>
        </mxCell>
        <mxCell id="vkxR9KCFY0yhszCb_NEq-123" value="" style="endArrow=classic;html=1;rounded=0;" edge="1" parent="1">
          <mxGeometry width="50" height="50" relative="1" as="geometry">
            <mxPoint x="937.3299999999999" y="1743" as="sourcePoint" />
            <mxPoint x="958.3299999999999" y="1743" as="targetPoint" />
          </mxGeometry>
        </mxCell>
        <mxCell id="vkxR9KCFY0yhszCb_NEq-124" value="" style="endArrow=classic;html=1;rounded=0;" edge="1" parent="1">
          <mxGeometry width="50" height="50" relative="1" as="geometry">
            <mxPoint x="937.3299999999999" y="1754" as="sourcePoint" />
            <mxPoint x="958.3299999999999" y="1754" as="targetPoint" />
          </mxGeometry>
        </mxCell>
        <mxCell id="vkxR9KCFY0yhszCb_NEq-125" value="" style="endArrow=classic;html=1;rounded=0;" edge="1" parent="1">
          <mxGeometry width="50" height="50" relative="1" as="geometry">
            <mxPoint x="937.8299999999999" y="1766" as="sourcePoint" />
            <mxPoint x="958.8299999999999" y="1766" as="targetPoint" />
          </mxGeometry>
        </mxCell>
        <mxCell id="vkxR9KCFY0yhszCb_NEq-126" value="" style="endArrow=classic;html=1;rounded=0;" edge="1" parent="1">
          <mxGeometry width="50" height="50" relative="1" as="geometry">
            <mxPoint x="937.8299999999999" y="1778.5" as="sourcePoint" />
            <mxPoint x="958.8299999999999" y="1778.5" as="targetPoint" />
          </mxGeometry>
        </mxCell>
        <mxCell id="vkxR9KCFY0yhszCb_NEq-127" value="inst[6:0]" style="text;html=1;align=center;verticalAlign=middle;resizable=0;points=[];autosize=1;strokeColor=none;fillColor=none;" vertex="1" parent="1">
          <mxGeometry x="691.83" y="1668" width="60" height="26" as="geometry" />
        </mxCell>
        <mxCell id="vkxR9KCFY0yhszCb_NEq-128" value="inst[14:12]" style="text;html=1;align=center;verticalAlign=middle;resizable=0;points=[];autosize=1;strokeColor=none;fillColor=none;" vertex="1" parent="1">
          <mxGeometry x="685.83" y="1702" width="73" height="26" as="geometry" />
        </mxCell>
        <mxCell id="vkxR9KCFY0yhszCb_NEq-129" value="inst[31:25]" style="text;html=1;align=center;verticalAlign=middle;resizable=0;points=[];autosize=1;strokeColor=none;fillColor=none;" vertex="1" parent="1">
          <mxGeometry x="685.83" y="1732" width="73" height="26" as="geometry" />
        </mxCell>
        <mxCell id="vkxR9KCFY0yhszCb_NEq-130" value="imm" style="text;html=1;align=center;verticalAlign=middle;resizable=0;points=[];autosize=1;strokeColor=none;fillColor=none;" vertex="1" parent="1">
          <mxGeometry x="936.8299999999999" y="1585" width="41" height="26" as="geometry" />
        </mxCell>
        <mxCell id="vkxR9KCFY0yhszCb_NEq-131" value="" style="group" vertex="1" connectable="0" parent="1">
          <mxGeometry x="1184" y="1400" width="40" height="110" as="geometry" />
        </mxCell>
        <mxCell id="vkxR9KCFY0yhszCb_NEq-132" style="edgeStyle=orthogonalEdgeStyle;rounded=0;orthogonalLoop=1;jettySize=auto;html=1;exitX=0.25;exitY=1;exitDx=0;exitDy=0;startArrow=classic;startFill=1;endArrow=none;endFill=0;" edge="1" parent="vkxR9KCFY0yhszCb_NEq-131" source="vkxR9KCFY0yhszCb_NEq-134">
          <mxGeometry relative="1" as="geometry">
            <mxPoint x="-78" y="-98" as="targetPoint" />
          </mxGeometry>
        </mxCell>
        <mxCell id="vkxR9KCFY0yhszCb_NEq-133" style="edgeStyle=orthogonalEdgeStyle;rounded=0;orthogonalLoop=1;jettySize=auto;html=1;" edge="1" parent="vkxR9KCFY0yhszCb_NEq-131" source="vkxR9KCFY0yhszCb_NEq-134">
          <mxGeometry relative="1" as="geometry">
            <mxPoint x="127.5454545454545" y="55" as="targetPoint" />
          </mxGeometry>
        </mxCell>
        <mxCell id="vkxR9KCFY0yhszCb_NEq-134" value="" style="shape=trapezoid;perimeter=trapezoidPerimeter;whiteSpace=wrap;html=1;fixedSize=1;size=20;rotation=90;fillColor=#f5f5f5;fontColor=#333333;strokeColor=#666666;" vertex="1" parent="vkxR9KCFY0yhszCb_NEq-131">
          <mxGeometry x="-35" y="35" width="110" height="40" as="geometry" />
        </mxCell>
        <mxCell id="vkxR9KCFY0yhszCb_NEq-135" value="M&lt;div&gt;U&lt;/div&gt;&lt;div&gt;X&lt;/div&gt;" style="text;html=1;align=center;verticalAlign=middle;resizable=0;points=[];autosize=1;strokeColor=none;fillColor=none;" vertex="1" parent="vkxR9KCFY0yhszCb_NEq-131">
          <mxGeometry x="5" y="25" width="30" height="60" as="geometry" />
        </mxCell>
        <mxCell id="vkxR9KCFY0yhszCb_NEq-136" value="" style="group" vertex="1" connectable="0" parent="1">
          <mxGeometry x="1297" y="1462" width="160.9" height="151" as="geometry" />
        </mxCell>
        <mxCell id="vkxR9KCFY0yhszCb_NEq-137" style="edgeStyle=orthogonalEdgeStyle;rounded=0;orthogonalLoop=1;jettySize=auto;html=1;exitX=1;exitY=0.5;exitDx=0;exitDy=0;startArrow=classic;startFill=1;endArrow=none;endFill=0;" edge="1" parent="vkxR9KCFY0yhszCb_NEq-136">
          <mxGeometry relative="1" as="geometry">
            <mxPoint x="55" y="202" as="targetPoint" />
            <mxPoint x="54.93000000000029" y="150.23413793103418" as="sourcePoint" />
          </mxGeometry>
        </mxCell>
        <mxCell id="vkxR9KCFY0yhszCb_NEq-138" value="" style="shape=trapezoid;perimeter=trapezoidPerimeter;whiteSpace=wrap;html=1;fixedSize=1;rotation=90;size=33.55172413793116;" vertex="1" parent="vkxR9KCFY0yhszCb_NEq-136">
          <mxGeometry x="-53.04" y="21.560000000000002" width="213.94" height="76.96" as="geometry" />
        </mxCell>
        <mxCell id="vkxR9KCFY0yhszCb_NEq-139" value="&lt;font style=&quot;font-size: 18px;&quot;&gt;A&lt;/font&gt;&lt;div&gt;&lt;font size=&quot;3&quot;&gt;L&lt;/font&gt;&lt;/div&gt;&lt;div&gt;&lt;font size=&quot;3&quot;&gt;U&lt;/font&gt;&lt;/div&gt;" style="text;html=1;align=center;verticalAlign=middle;resizable=0;points=[];autosize=1;strokeColor=#314354;fillColor=#647687;fontColor=#ffffff;" vertex="1" parent="vkxR9KCFY0yhszCb_NEq-136">
          <mxGeometry x="59.00090909090909" y="21.56" width="30" height="72" as="geometry" />
        </mxCell>
        <mxCell id="vkxR9KCFY0yhszCb_NEq-140" value="" style="rounded=0;whiteSpace=wrap;html=1;strokeColor=#FFFFFF;" vertex="1" parent="vkxR9KCFY0yhszCb_NEq-136">
          <mxGeometry y="23.5" width="20" height="73" as="geometry" />
        </mxCell>
        <mxCell id="vkxR9KCFY0yhszCb_NEq-141" value="" style="endArrow=none;html=1;rounded=0;exitX=0.674;exitY=1.002;exitDx=0;exitDy=0;exitPerimeter=0;" edge="1" parent="vkxR9KCFY0yhszCb_NEq-136" source="vkxR9KCFY0yhszCb_NEq-138">
          <mxGeometry width="50" height="50" relative="1" as="geometry">
            <mxPoint x="7.724363636363544" y="82.16666666666666" as="sourcePoint" />
            <mxPoint x="54.72727272727273" y="55.74166666666666" as="targetPoint" />
          </mxGeometry>
        </mxCell>
        <mxCell id="vkxR9KCFY0yhszCb_NEq-142" value="" style="endArrow=none;html=1;rounded=0;exitX=0.325;exitY=1.004;exitDx=0;exitDy=0;exitPerimeter=0;" edge="1" parent="vkxR9KCFY0yhszCb_NEq-136" source="vkxR9KCFY0yhszCb_NEq-138">
          <mxGeometry width="50" height="50" relative="1" as="geometry">
            <mxPoint x="7.818181818181818" y="30.574999999999996" as="sourcePoint" />
            <mxPoint x="54.72727272727273" y="55.74166666666666" as="targetPoint" />
            <Array as="points">
              <mxPoint x="54.72727272727273" y="55.74166666666666" />
            </Array>
          </mxGeometry>
        </mxCell>
        <mxCell id="vkxR9KCFY0yhszCb_NEq-143" value="Zero" style="text;html=1;align=center;verticalAlign=middle;resizable=0;points=[];autosize=1;strokeColor=none;fillColor=none;" vertex="1" parent="vkxR9KCFY0yhszCb_NEq-136">
          <mxGeometry x="98" y="9" width="43" height="26" as="geometry" />
        </mxCell>
        <mxCell id="vkxR9KCFY0yhszCb_NEq-144" value="Result" style="text;html=1;align=center;verticalAlign=middle;resizable=0;points=[];autosize=1;strokeColor=none;fillColor=none;" vertex="1" parent="vkxR9KCFY0yhszCb_NEq-136">
          <mxGeometry x="93.5" y="32" width="52" height="26" as="geometry" />
        </mxCell>
        <mxCell id="vkxR9KCFY0yhszCb_NEq-145" value="" style="group" vertex="1" connectable="0" parent="1">
          <mxGeometry x="1166" y="1544" width="57" height="134" as="geometry" />
        </mxCell>
        <mxCell id="vkxR9KCFY0yhszCb_NEq-146" style="edgeStyle=orthogonalEdgeStyle;rounded=0;orthogonalLoop=1;jettySize=auto;html=1;startArrow=classic;startFill=1;endArrow=none;endFill=0;" edge="1" parent="vkxR9KCFY0yhszCb_NEq-145" source="vkxR9KCFY0yhszCb_NEq-148">
          <mxGeometry relative="1" as="geometry">
            <mxPoint x="-77.48484848484827" y="66.99999999999955" as="targetPoint" />
          </mxGeometry>
        </mxCell>
        <mxCell id="vkxR9KCFY0yhszCb_NEq-147" style="edgeStyle=orthogonalEdgeStyle;rounded=0;orthogonalLoop=1;jettySize=auto;html=1;exitX=0.75;exitY=1;exitDx=0;exitDy=0;startArrow=classic;startFill=1;endArrow=none;endFill=0;" edge="1" parent="vkxR9KCFY0yhszCb_NEq-145" source="vkxR9KCFY0yhszCb_NEq-148">
          <mxGeometry relative="1" as="geometry">
            <mxPoint x="-56.87878787878776" y="106.27272727272748" as="targetPoint" />
          </mxGeometry>
        </mxCell>
        <mxCell id="vkxR9KCFY0yhszCb_NEq-148" value="" style="shape=trapezoid;perimeter=trapezoidPerimeter;whiteSpace=wrap;html=1;fixedSize=1;size=20;rotation=90;fillColor=#f5f5f5;fontColor=#333333;strokeColor=#666666;" vertex="1" parent="vkxR9KCFY0yhszCb_NEq-145">
          <mxGeometry x="-49.875" y="42.63636363636364" width="156.75" height="48.727272727272734" as="geometry" />
        </mxCell>
        <mxCell id="vkxR9KCFY0yhszCb_NEq-149" value="&lt;font style=&quot;font-size: 18px;&quot;&gt;M&lt;/font&gt;&lt;div&gt;&lt;font size=&quot;3&quot;&gt;U&lt;/font&gt;&lt;/div&gt;&lt;div&gt;&lt;font size=&quot;3&quot;&gt;X&lt;/font&gt;&lt;/div&gt;" style="text;html=1;align=center;verticalAlign=middle;resizable=0;points=[];autosize=1;strokeColor=none;fillColor=none;" vertex="1" parent="vkxR9KCFY0yhszCb_NEq-145">
          <mxGeometry x="12.005" y="25.364545454545457" width="33" height="72" as="geometry" />
        </mxCell>
        <mxCell id="vkxR9KCFY0yhszCb_NEq-150" style="edgeStyle=orthogonalEdgeStyle;rounded=0;orthogonalLoop=1;jettySize=auto;html=1;" edge="1" parent="1" source="vkxR9KCFY0yhszCb_NEq-148">
          <mxGeometry relative="1" as="geometry">
            <mxPoint x="1311" y="1593" as="targetPoint" />
          </mxGeometry>
        </mxCell>
        <mxCell id="vkxR9KCFY0yhszCb_NEq-151" value="" style="endArrow=none;html=1;rounded=0;" edge="1" parent="1">
          <mxGeometry width="50" height="50" relative="1" as="geometry">
            <mxPoint x="1233" y="1621" as="sourcePoint" />
            <mxPoint x="1250" y="1603" as="targetPoint" />
          </mxGeometry>
        </mxCell>
        <mxCell id="vkxR9KCFY0yhszCb_NEq-152" value="&lt;font style=&quot;font-size: 10px;&quot;&gt;32&lt;/font&gt;" style="text;html=1;align=center;verticalAlign=middle;resizable=0;points=[];autosize=1;strokeColor=none;fillColor=none;" vertex="1" parent="1">
          <mxGeometry x="1230" y="1603" width="29" height="26" as="geometry" />
        </mxCell>
        <mxCell id="vkxR9KCFY0yhszCb_NEq-153" value="imm" style="text;html=1;align=center;verticalAlign=middle;resizable=0;points=[];autosize=1;strokeColor=none;fillColor=none;" vertex="1" parent="1">
          <mxGeometry x="1218" y="1577" width="41" height="26" as="geometry" />
        </mxCell>
        <mxCell id="vkxR9KCFY0yhszCb_NEq-154" value="" style="endArrow=none;html=1;rounded=0;" edge="1" parent="1">
          <mxGeometry width="50" height="50" relative="1" as="geometry">
            <mxPoint x="1255" y="1466" as="sourcePoint" />
            <mxPoint x="1272" y="1448" as="targetPoint" />
          </mxGeometry>
        </mxCell>
        <mxCell id="vkxR9KCFY0yhszCb_NEq-155" value="&lt;font style=&quot;font-size: 10px;&quot;&gt;32&lt;/font&gt;" style="text;html=1;align=center;verticalAlign=middle;resizable=0;points=[];autosize=1;strokeColor=none;fillColor=none;" vertex="1" parent="1">
          <mxGeometry x="1252" y="1448" width="29" height="26" as="geometry" />
        </mxCell>
        <mxCell id="vkxR9KCFY0yhszCb_NEq-156" value="Less" style="text;html=1;align=center;verticalAlign=middle;resizable=0;points=[];autosize=1;strokeColor=none;fillColor=none;" vertex="1" parent="1">
          <mxGeometry x="1396" y="1440" width="43" height="26" as="geometry" />
        </mxCell>
        <mxCell id="vkxR9KCFY0yhszCb_NEq-157" value="ALUAsrc" style="text;html=1;align=center;verticalAlign=middle;resizable=0;points=[];autosize=1;strokeColor=none;fillColor=none;fontColor=#CC99FF;" vertex="1" parent="1">
          <mxGeometry x="1139" y="1506" width="65" height="26" as="geometry" />
        </mxCell>
        <mxCell id="vkxR9KCFY0yhszCb_NEq-158" value="ALUBsrc" style="text;html=1;align=center;verticalAlign=middle;resizable=0;points=[];autosize=1;strokeColor=none;fillColor=none;fontColor=#CC99FF;" vertex="1" parent="1">
          <mxGeometry x="1139" y="1691" width="65" height="26" as="geometry" />
        </mxCell>
        <mxCell id="vkxR9KCFY0yhszCb_NEq-159" value="ALUctr" style="text;html=1;align=center;verticalAlign=middle;resizable=0;points=[];autosize=1;strokeColor=none;fillColor=none;fontColor=#CC99FF;" vertex="1" parent="1">
          <mxGeometry x="1324" y="1683" width="55" height="26" as="geometry" />
        </mxCell>
        <mxCell id="vkxR9KCFY0yhszCb_NEq-160" value="" style="html=1;dashed=0;whiteSpace=wrap;fillColor=#d5e8d4;strokeColor=#82b366;" vertex="1" parent="1">
          <mxGeometry x="1640" y="1675" width="100" height="150" as="geometry" />
        </mxCell>
        <mxCell id="vkxR9KCFY0yhszCb_NEq-161" value="" style="triangle;whiteSpace=wrap;html=1;dashed=0;direction=south;rotation=-180;" vertex="1" parent="1">
          <mxGeometry x="1695" y="1815" width="10" height="10" as="geometry" />
        </mxCell>
        <mxCell id="vkxR9KCFY0yhszCb_NEq-210" style="edgeStyle=orthogonalEdgeStyle;rounded=0;orthogonalLoop=1;jettySize=auto;html=1;exitX=0.5;exitY=1;exitDx=0;exitDy=0;strokeColor=#b85450;align=center;verticalAlign=middle;fontFamily=Helvetica;fontSize=11;fontColor=default;labelBackgroundColor=default;startArrow=classic;startFill=1;endArrow=none;endFill=0;fillColor=#f8cecc;" edge="1" parent="1" source="vkxR9KCFY0yhszCb_NEq-162">
          <mxGeometry relative="1" as="geometry">
            <mxPoint x="1700.011494252874" y="1866" as="targetPoint" />
          </mxGeometry>
        </mxCell>
        <mxCell id="vkxR9KCFY0yhszCb_NEq-162" value="" style="shape=ellipse;html=1;dashed=0;whiteSpace=wrap;aspect=fixed;perimeter=ellipsePerimeter;rotation=0;" vertex="1" parent="1">
          <mxGeometry x="1695" y="1825" width="10" height="10" as="geometry" />
        </mxCell>
        <mxCell id="vkxR9KCFY0yhszCb_NEq-163" value="Addr" style="text;html=1;align=center;verticalAlign=middle;resizable=0;points=[];autosize=1;strokeColor=none;fillColor=none;" vertex="1" parent="1">
          <mxGeometry x="1640" y="1687" width="43" height="26" as="geometry" />
        </mxCell>
        <mxCell id="vkxR9KCFY0yhszCb_NEq-164" value="&lt;span style=&quot;text-wrap-mode: wrap;&quot;&gt;&lt;font style=&quot;font-size: 18px;&quot;&gt;&lt;b style=&quot;&quot;&gt;Data&lt;/b&gt;&lt;/font&gt;&lt;/span&gt;&lt;div style=&quot;text-wrap-mode: wrap;&quot;&gt;&lt;font size=&quot;3&quot;&gt;&lt;b&gt;Mem&lt;/b&gt;&lt;/font&gt;&lt;/div&gt;" style="text;html=1;align=center;verticalAlign=middle;resizable=0;points=[];autosize=1;strokeColor=none;fillColor=none;" vertex="1" parent="1">
          <mxGeometry x="1681" y="1675" width="57" height="53" as="geometry" />
        </mxCell>
        <mxCell id="vkxR9KCFY0yhszCb_NEq-165" style="edgeStyle=orthogonalEdgeStyle;rounded=0;orthogonalLoop=1;jettySize=auto;html=1;startArrow=classic;startFill=1;endArrow=none;endFill=0;" edge="1" parent="1" source="vkxR9KCFY0yhszCb_NEq-166">
          <mxGeometry relative="1" as="geometry">
            <mxPoint x="1579" y="1731.9999999999995" as="targetPoint" />
          </mxGeometry>
        </mxCell>
        <mxCell id="vkxR9KCFY0yhszCb_NEq-166" value="MemOp" style="text;html=1;align=center;verticalAlign=middle;resizable=0;points=[];autosize=1;strokeColor=none;fillColor=none;" vertex="1" parent="1">
          <mxGeometry x="1640" y="1719" width="61" height="26" as="geometry" />
        </mxCell>
        <mxCell id="vkxR9KCFY0yhszCb_NEq-167" value="DataIn" style="text;html=1;align=center;verticalAlign=middle;resizable=0;points=[];autosize=1;strokeColor=none;fillColor=none;" vertex="1" parent="1">
          <mxGeometry x="1640" y="1768" width="53" height="26" as="geometry" />
        </mxCell>
        <mxCell id="vkxR9KCFY0yhszCb_NEq-168" style="edgeStyle=orthogonalEdgeStyle;rounded=0;orthogonalLoop=1;jettySize=auto;html=1;startArrow=classic;startFill=1;endArrow=none;endFill=0;" edge="1" parent="1" source="vkxR9KCFY0yhszCb_NEq-169">
          <mxGeometry relative="1" as="geometry">
            <mxPoint x="1583.2857142857142" y="1810" as="targetPoint" />
          </mxGeometry>
        </mxCell>
        <mxCell id="vkxR9KCFY0yhszCb_NEq-169" value="WrEn" style="text;html=1;align=center;verticalAlign=middle;resizable=0;points=[];autosize=1;strokeColor=none;fillColor=none;" vertex="1" parent="1">
          <mxGeometry x="1640" y="1797" width="48" height="26" as="geometry" />
        </mxCell>
        <mxCell id="vkxR9KCFY0yhszCb_NEq-170" value="DataOut" style="text;html=1;align=center;verticalAlign=middle;resizable=0;points=[];autosize=1;strokeColor=none;fillColor=none;" vertex="1" parent="1">
          <mxGeometry x="1676.5" y="1737" width="63" height="26" as="geometry" />
        </mxCell>
        <mxCell id="vkxR9KCFY0yhszCb_NEq-171" value="" style="triangle;whiteSpace=wrap;html=1;dashed=0;direction=south;rotation=-180;" vertex="1" parent="1">
          <mxGeometry x="1718" y="1815" width="10" height="10" as="geometry" />
        </mxCell>
        <mxCell id="vkxR9KCFY0yhszCb_NEq-211" style="edgeStyle=orthogonalEdgeStyle;rounded=0;orthogonalLoop=1;jettySize=auto;html=1;exitX=0.5;exitY=1;exitDx=0;exitDy=0;strokeColor=#b85450;align=center;verticalAlign=middle;fontFamily=Helvetica;fontSize=11;fontColor=default;labelBackgroundColor=default;startArrow=classic;startFill=1;endArrow=none;endFill=0;fillColor=#f8cecc;" edge="1" parent="1" source="vkxR9KCFY0yhszCb_NEq-172">
          <mxGeometry relative="1" as="geometry">
            <mxPoint x="1723" y="1866" as="targetPoint" />
          </mxGeometry>
        </mxCell>
        <mxCell id="vkxR9KCFY0yhszCb_NEq-172" value="" style="shape=ellipse;html=1;dashed=0;whiteSpace=wrap;aspect=fixed;perimeter=ellipsePerimeter;rotation=0;" vertex="1" parent="1">
          <mxGeometry x="1718" y="1825" width="10" height="10" as="geometry" />
        </mxCell>
        <mxCell id="vkxR9KCFY0yhszCb_NEq-173" value="Rd" style="text;html=1;align=center;verticalAlign=middle;resizable=0;points=[];autosize=1;strokeColor=none;fillColor=none;" vertex="1" parent="1">
          <mxGeometry x="1681" y="1785" width="33" height="26" as="geometry" />
        </mxCell>
        <mxCell id="vkxR9KCFY0yhszCb_NEq-174" value="Wr" style="text;html=1;align=center;verticalAlign=middle;resizable=0;points=[];autosize=1;strokeColor=none;fillColor=none;" vertex="1" parent="1">
          <mxGeometry x="1706.5" y="1785" width="33" height="26" as="geometry" />
        </mxCell>
        <mxCell id="vkxR9KCFY0yhszCb_NEq-175" value="" style="endArrow=none;html=1;rounded=0;" edge="1" parent="1">
          <mxGeometry width="50" height="50" relative="1" as="geometry">
            <mxPoint x="1591" y="1711" as="sourcePoint" />
            <mxPoint x="1608" y="1693" as="targetPoint" />
          </mxGeometry>
        </mxCell>
        <mxCell id="vkxR9KCFY0yhszCb_NEq-176" value="&lt;font style=&quot;font-size: 10px;&quot;&gt;32&lt;/font&gt;" style="text;html=1;align=center;verticalAlign=middle;resizable=0;points=[];autosize=1;strokeColor=none;fillColor=none;" vertex="1" parent="1">
          <mxGeometry x="1588" y="1693" width="29" height="26" as="geometry" />
        </mxCell>
        <mxCell id="vkxR9KCFY0yhszCb_NEq-177" style="edgeStyle=orthogonalEdgeStyle;rounded=0;orthogonalLoop=1;jettySize=auto;html=1;exitX=0.5;exitY=0;exitDx=0;exitDy=0;entryX=0.5;entryY=0;entryDx=0;entryDy=0;" edge="1" parent="1" source="vkxR9KCFY0yhszCb_NEq-37" target="vkxR9KCFY0yhszCb_NEq-6">
          <mxGeometry relative="1" as="geometry" />
        </mxCell>
        <mxCell id="vkxR9KCFY0yhszCb_NEq-178" style="edgeStyle=orthogonalEdgeStyle;rounded=0;orthogonalLoop=1;jettySize=auto;html=1;exitX=1;exitY=0.5;exitDx=0;exitDy=0;entryX=0.008;entryY=0.801;entryDx=0;entryDy=0;entryPerimeter=0;" edge="1" parent="1" source="vkxR9KCFY0yhszCb_NEq-6" target="vkxR9KCFY0yhszCb_NEq-9">
          <mxGeometry relative="1" as="geometry">
            <Array as="points">
              <mxPoint x="220" y="1628" />
              <mxPoint x="220" y="1854" />
            </Array>
          </mxGeometry>
        </mxCell>
        <mxCell id="vkxR9KCFY0yhszCb_NEq-182" style="edgeStyle=orthogonalEdgeStyle;rounded=0;orthogonalLoop=1;jettySize=auto;html=1;exitX=1;exitY=0.5;exitDx=0;exitDy=0;entryX=0.908;entryY=0.5;entryDx=0;entryDy=0;entryPerimeter=0;strokeColor=#FF9999;align=center;verticalAlign=middle;fontFamily=Helvetica;fontSize=11;fontColor=default;labelBackgroundColor=default;startArrow=classic;startFill=1;endArrow=none;endFill=0;fillColor=#f8cecc;" edge="1" parent="1" source="QvKiuwDlhmeOhOTdiMVR-41">
          <mxGeometry relative="1" as="geometry">
            <mxPoint x="803.5" y="159.625" as="sourcePoint" />
            <mxPoint x="803.5720000000001" y="174" as="targetPoint" />
          </mxGeometry>
        </mxCell>
        <mxCell id="vkxR9KCFY0yhszCb_NEq-185" style="edgeStyle=orthogonalEdgeStyle;rounded=0;orthogonalLoop=1;jettySize=auto;html=1;exitX=0.25;exitY=1;exitDx=0;exitDy=0;startArrow=classic;startFill=1;endArrow=none;endFill=0;" edge="1" parent="1">
          <mxGeometry relative="1" as="geometry">
            <mxPoint x="19" y="1187" as="targetPoint" />
            <mxPoint x="77" y="1187" as="sourcePoint" />
          </mxGeometry>
        </mxCell>
        <mxCell id="vkxR9KCFY0yhszCb_NEq-186" style="edgeStyle=orthogonalEdgeStyle;rounded=0;orthogonalLoop=1;jettySize=auto;html=1;exitX=0.25;exitY=1;exitDx=0;exitDy=0;startArrow=classic;startFill=1;endArrow=none;endFill=0;" edge="1" parent="1">
          <mxGeometry relative="1" as="geometry">
            <mxPoint x="19" y="1238" as="targetPoint" />
            <mxPoint x="77" y="1238" as="sourcePoint" />
          </mxGeometry>
        </mxCell>
        <mxCell id="vkxR9KCFY0yhszCb_NEq-193" style="edgeStyle=orthogonalEdgeStyle;rounded=0;orthogonalLoop=1;jettySize=auto;html=1;exitX=0;exitY=0.5;exitDx=0;exitDy=0;entryX=0.018;entryY=0.913;entryDx=0;entryDy=0;entryPerimeter=0;" edge="1" parent="1" source="vkxR9KCFY0yhszCb_NEq-6" target="vkxR9KCFY0yhszCb_NEq-31">
          <mxGeometry relative="1" as="geometry">
            <Array as="points">
              <mxPoint x="20" y="1628" />
              <mxPoint x="20" y="1349" />
            </Array>
          </mxGeometry>
        </mxCell>
        <mxCell id="vkxR9KCFY0yhszCb_NEq-196" value="" style="group" vertex="1" connectable="0" parent="1">
          <mxGeometry x="1900" y="1480" width="40" height="110" as="geometry" />
        </mxCell>
        <mxCell id="vkxR9KCFY0yhszCb_NEq-198" style="edgeStyle=orthogonalEdgeStyle;rounded=0;orthogonalLoop=1;jettySize=auto;html=1;exitX=1;exitY=0.5;exitDx=0;exitDy=0;startArrow=classic;startFill=1;endArrow=none;endFill=0;" edge="1" parent="vkxR9KCFY0yhszCb_NEq-196" source="vkxR9KCFY0yhszCb_NEq-199">
          <mxGeometry relative="1" as="geometry">
            <mxPoint x="19.82978723404267" y="158.63829787234044" as="targetPoint" />
          </mxGeometry>
        </mxCell>
        <mxCell id="vkxR9KCFY0yhszCb_NEq-209" style="edgeStyle=orthogonalEdgeStyle;rounded=0;orthogonalLoop=1;jettySize=auto;html=1;exitX=0.5;exitY=0;exitDx=0;exitDy=0;" edge="1" parent="vkxR9KCFY0yhszCb_NEq-196" source="vkxR9KCFY0yhszCb_NEq-199">
          <mxGeometry relative="1" as="geometry">
            <mxPoint x="80" y="130" as="targetPoint" />
          </mxGeometry>
        </mxCell>
        <mxCell id="vkxR9KCFY0yhszCb_NEq-199" value="" style="shape=trapezoid;perimeter=trapezoidPerimeter;whiteSpace=wrap;html=1;fixedSize=1;size=20;rotation=90;fillColor=#d0cee2;strokeColor=#56517e;" vertex="1" parent="vkxR9KCFY0yhszCb_NEq-196">
          <mxGeometry x="-35" y="35" width="110" height="40" as="geometry" />
        </mxCell>
        <mxCell id="vkxR9KCFY0yhszCb_NEq-200" value="M&lt;div&gt;U&lt;/div&gt;&lt;div&gt;X&lt;/div&gt;" style="text;html=1;align=center;verticalAlign=middle;resizable=0;points=[];autosize=1;strokeColor=none;fillColor=none;" vertex="1" parent="vkxR9KCFY0yhszCb_NEq-196">
          <mxGeometry x="5" y="25" width="30" height="60" as="geometry" />
        </mxCell>
        <mxCell id="vkxR9KCFY0yhszCb_NEq-201" value="MemtoReg" style="text;html=1;align=center;verticalAlign=middle;resizable=0;points=[];autosize=1;strokeColor=none;fillColor=none;fontColor=#CC99FF;" vertex="1" parent="1">
          <mxGeometry x="1889" y="1645" width="77" height="26" as="geometry" />
        </mxCell>
        <mxCell id="vkxR9KCFY0yhszCb_NEq-202" style="edgeStyle=orthogonalEdgeStyle;rounded=0;orthogonalLoop=1;jettySize=auto;html=1;exitX=1;exitY=0.5;exitDx=0;exitDy=0;entryX=0.073;entryY=0.717;entryDx=0;entryDy=0;entryPerimeter=0;" edge="1" parent="1" source="vkxR9KCFY0yhszCb_NEq-67" target="vkxR9KCFY0yhszCb_NEq-3">
          <mxGeometry relative="1" as="geometry" />
        </mxCell>
        <mxCell id="vkxR9KCFY0yhszCb_NEq-203" style="edgeStyle=orthogonalEdgeStyle;rounded=0;orthogonalLoop=1;jettySize=auto;html=1;exitX=0;exitY=0.25;exitDx=0;exitDy=0;startArrow=classic;startFill=1;endArrow=none;endFill=0;" edge="1" parent="1">
          <mxGeometry relative="1" as="geometry">
            <mxPoint x="732.739090909091" y="1219.969696969697" as="targetPoint" />
            <mxPoint x="800" y="1220" as="sourcePoint" />
          </mxGeometry>
        </mxCell>
        <mxCell id="vkxR9KCFY0yhszCb_NEq-204" style="edgeStyle=orthogonalEdgeStyle;rounded=0;orthogonalLoop=1;jettySize=auto;html=1;exitX=0;exitY=0.25;exitDx=0;exitDy=0;startArrow=classic;startFill=1;endArrow=none;endFill=0;" edge="1" parent="1">
          <mxGeometry relative="1" as="geometry">
            <mxPoint x="732.739090909091" y="1235.969696969697" as="targetPoint" />
            <mxPoint x="800" y="1236" as="sourcePoint" />
          </mxGeometry>
        </mxCell>
        <mxCell id="vkxR9KCFY0yhszCb_NEq-205" value="Zero" style="text;html=1;align=center;verticalAlign=middle;resizable=0;points=[];autosize=1;strokeColor=none;fillColor=none;" vertex="1" parent="1">
          <mxGeometry x="744.83" y="1217" width="43" height="26" as="geometry" />
        </mxCell>
        <mxCell id="vkxR9KCFY0yhszCb_NEq-206" value="Less" style="text;html=1;align=center;verticalAlign=middle;resizable=0;points=[];autosize=1;strokeColor=none;fillColor=none;" vertex="1" parent="1">
          <mxGeometry x="744.83" y="1199.5" width="43" height="26" as="geometry" />
        </mxCell>
        <mxCell id="vkxR9KCFY0yhszCb_NEq-207" style="edgeStyle=orthogonalEdgeStyle;rounded=0;orthogonalLoop=1;jettySize=auto;html=1;exitX=0.25;exitY=1;exitDx=0;exitDy=0;entryX=1.041;entryY=0.562;entryDx=0;entryDy=0;entryPerimeter=0;endArrow=none;endFill=0;startArrow=classic;startFill=1;" edge="1" parent="1">
          <mxGeometry relative="1" as="geometry">
            <mxPoint x="1900" y="1507.5" as="sourcePoint" />
            <mxPoint x="1817" y="1507.78" as="targetPoint" />
          </mxGeometry>
        </mxCell>
        <mxCell id="vkxR9KCFY0yhszCb_NEq-208" style="edgeStyle=orthogonalEdgeStyle;rounded=0;orthogonalLoop=1;jettySize=auto;html=1;exitX=0.75;exitY=1;exitDx=0;exitDy=0;entryX=0.989;entryY=0.641;entryDx=0;entryDy=0;entryPerimeter=0;endArrow=none;endFill=0;startArrow=classic;startFill=1;" edge="1" parent="1" source="vkxR9KCFY0yhszCb_NEq-199" target="vkxR9KCFY0yhszCb_NEq-5">
          <mxGeometry relative="1" as="geometry" />
        </mxCell>
      </root>
    </mxGraphModel>
  </diagram>
</mxfile>
